<?xml version="1.0" encoding="UTF-8" standalone="no"?><!DOCTYPE svg PUBLIC "-//W3C//DTD SVG 1.1//EN" "http://www.w3.org/Graphics/SVG/1.1/DTD/svg11.dtd"><svg width="100%" height="100%" viewBox="0 0 100 100" version="1.1" xmlns="http://www.w3.org/2000/svg" xmlns:xlink="http://www.w3.org/1999/xlink" xml:space="preserve" xmlns:serif="http://www.serif.com/" style="fill-rule:evenodd;clip-rule:evenodd;stroke-linejoin:round;stroke-miterlimit:2;"><path d="M90,85c0,1.326 -0.527,2.598 -1.464,3.536c-0.938,0.937 -2.21,1.464 -3.536,1.464l-70,0c-1.326,0 -2.598,-0.527 -3.536,-1.464c-0.937,-0.938 -1.464,-2.21 -1.464,-3.536l0,-70c0,-1.326 0.527,-2.598 1.464,-3.536c0.938,-0.937 2.21,-1.464 3.536,-1.464l70,0c1.326,0 2.598,0.527 3.536,1.464c0.937,0.938 1.464,2.21 1.464,3.536l0,70Zm-73,-71c-1.657,0 -3,1.343 -3,3l0,66c0,1.657 1.343,3 3,3l66,0c1.657,0 3,-1.343 3,-3l0,-66c0,-1.657 -1.343,-3 -3,-3l-66,0Z"/><circle cx="50" cy="50" r="5"/><circle cx="67.5" cy="32.5" r="5"/><circle cx="32.5" cy="32.5" r="5"/><circle cx="67.5" cy="67.5" r="5"/><circle cx="32.5" cy="67.5" r="5"/></svg>