<?xml version="1.0" encoding="UTF-8" standalone="no"?><!DOCTYPE svg PUBLIC "-//W3C//DTD SVG 1.1//EN" "http://www.w3.org/Graphics/SVG/1.1/DTD/svg11.dtd"><svg width="100%" height="100%" viewBox="0 0 100 100" version="1.1" xmlns="http://www.w3.org/2000/svg" xmlns:xlink="http://www.w3.org/1999/xlink" xml:space="preserve" xmlns:serif="http://www.serif.com/" style="fill-rule:evenodd;clip-rule:evenodd;stroke-linejoin:round;stroke-miterlimit:2;"><path d="M56.525,5.707l-8.808,8.808l8.808,8.808l-2.828,2.828l-11.636,-11.636l11.636,-11.636l2.828,2.828Z"/><path d="M50.239,12.516l0.238,0.002l0.239,0.004l0.238,0.005l0.237,0.007l0.237,0.008l0.237,0.01l0.236,0.011l0.236,0.013l0.236,0.014l0.235,0.016l0.235,0.017l0.235,0.019l0.234,0.02l0.233,0.021l0.234,0.023l0.233,0.025l0.232,0.026l0.232,0.027l0.232,0.029l0.231,0.03l0.231,0.031l0.23,0.033l0.23,0.035l0.229,0.036l0.229,0.037l0.228,0.038l0.228,0.04l0.228,0.042l0.227,0.043l0.226,0.044l0.226,0.045l0.226,0.047l0.225,0.049l0.225,0.049l0.224,0.051l0.223,0.053l0.223,0.054l0.223,0.055l0.222,0.056l0.221,0.058l0.221,0.059l0.22,0.06l0.22,0.062l0.219,0.063l0.219,0.065l0.218,0.065l0.218,0.067l0.217,0.068l0.216,0.07l0.216,0.071l0.215,0.072l0.215,0.074l0.214,0.074l0.213,0.076l0.213,0.078l0.212,0.078l0.212,0.08l0.211,0.081l0.21,0.082l0.21,0.084l0.209,0.084l0.209,0.086l0.208,0.088l0.207,0.088l0.206,0.09l0.206,0.091l0.206,0.092l0.204,0.093l0.204,0.095l0.203,0.095l0.203,0.097l0.202,0.098l0.201,0.1l0.2,0.1l0.2,0.102l0.199,0.102l0.199,0.104l0.197,0.106l0.197,0.106l0.197,0.107l0.195,0.109l0.195,0.11l0.194,0.11l0.193,0.112l0.193,0.114l0.192,0.114l0.191,0.115l0.19,0.117l0.19,0.117l0.189,0.119l0.188,0.12l0.187,0.121l0.186,0.122l0.186,0.123l0.185,0.124l0.184,0.125l0.183,0.127l0.183,0.127l0.182,0.128l0.181,0.13l0.18,0.13l0.179,0.132l0.179,0.133l0.177,0.133l0.177,0.135l0.176,0.136l0.175,0.137l0.174,0.138l0.174,0.138l0.172,0.14l0.172,0.141l0.171,0.142l0.17,0.143l0.169,0.144l0.168,0.145l0.168,0.146l0.166,0.146l0.166,0.148l0.164,0.149l0.164,0.15l0.163,0.151l0.162,0.151l0.161,0.153l0.16,0.154l0.159,0.154l0.159,0.156l0.157,0.156l0.157,0.157l0.155,0.159l0.155,0.159l0.153,0.16l0.153,0.161l0.152,0.162l0.15,0.163l0.15,0.164l0.149,0.165l0.148,0.165l0.147,0.167l0.145,0.167l0.145,0.168l0.144,0.169l0.143,0.17l0.142,0.171l0.141,0.172l0.14,0.172l0.139,0.174l0.137,0.174l0.137,0.175l0.136,0.176l0.135,0.177l0.133,0.178l0.133,0.178l0.132,0.179l0.13,0.18l0.13,0.181l0.128,0.182l0.128,0.183l0.126,0.183l0.125,0.184l0.124,0.185l0.123,0.186l0.122,0.186l0.121,0.187l0.12,0.189l0.119,0.188l0.117,0.19l0.117,0.19l0.115,0.191l0.115,0.192l0.113,0.193l0.112,0.193l0.111,0.194l0.109,0.195l0.109,0.195l0.107,0.197l0.107,0.197l0.105,0.197l0.104,0.199l0.102,0.199l0.102,0.2l0.101,0.2l0.099,0.201l0.098,0.202l0.097,0.203l0.096,0.203l0.094,0.204l0.093,0.205l0.092,0.205l0.091,0.206l0.09,0.206l0.089,0.207l0.087,0.208l0.086,0.209l0.085,0.209l0.083,0.21l0.082,0.21l0.081,0.211l0.08,0.212l0.079,0.212l0.077,0.213l0.076,0.213l0.075,0.214l0.073,0.215l0.072,0.215l0.071,0.216l0.07,0.217l0.068,0.217l0.067,0.217l0.066,0.218l0.064,0.219l0.063,0.219l0.062,0.22l0.06,0.22l0.059,0.221l0.058,0.222l0.057,0.222l0.055,0.222l0.053,0.223l0.053,0.224l0.051,0.224l0.049,0.224l0.049,0.225l0.047,0.226l0.045,0.226l0.044,0.226l0.043,0.227l0.042,0.228l0.04,0.228l0.038,0.228l0.038,0.229l0.035,0.23l0.035,0.229l0.033,0.231l0.031,0.23l0.031,0.232l0.028,0.231l0.028,0.232l0.025,0.233l0.025,0.232l0.023,0.234l0.021,0.233l0.02,0.234l0.019,0.235l0.017,0.235l0.016,0.235l0.014,0.236l0.013,0.236l0.011,0.236l0.01,0.237l0.008,0.237l0.007,0.238l0.005,0.238l0.004,0.238l0.002,0.238l0.001,0.239l-0.001,0.239l-0.002,0.239l-0.004,0.238l-0.005,0.238l-0.007,0.237l-0.008,0.237l-0.01,0.237l-0.011,0.237l-0.013,0.236l-0.014,0.235l-0.016,0.235l-0.017,0.235l-0.019,0.235l-0.02,0.234l-0.021,0.234l-0.023,0.233l-0.025,0.233l-0.025,0.232l-0.028,0.232l-0.028,0.232l-0.031,0.231l-0.031,0.231l-0.033,0.23l-0.035,0.23l-0.035,0.229l-0.038,0.229l-0.038,0.228l-0.04,0.228l-0.042,0.228l-0.043,0.227l-0.044,0.226l-0.045,0.227l-0.047,0.225l-0.049,0.225l-0.049,0.225l-0.051,0.224l-0.053,0.223l-0.053,0.223l-0.055,0.223l-0.057,0.222l-0.058,0.221l-0.059,0.221l-0.06,0.22l-0.062,0.22l-0.063,0.219l-0.064,0.219l-0.066,0.218l-0.067,0.218l-0.068,0.217l-0.07,0.216l-0.071,0.216l-0.072,0.215l-0.073,0.215l-0.075,0.214l-0.076,0.213l-0.077,0.213l-0.079,0.213l-0.08,0.211l-0.081,0.211l-0.082,0.211l-0.083,0.209l-0.085,0.21l-0.086,0.208l-0.087,0.208l-0.089,0.207l-0.09,0.207l-0.091,0.206l-0.092,0.205l-0.093,0.204l-0.094,0.204l-0.096,0.204l-0.097,0.202l-0.098,0.202l-0.099,0.201l-0.101,0.201l-0.102,0.199l-0.102,0.2l-0.104,0.198l-0.105,0.198l-0.107,0.197l-0.107,0.196l-0.109,0.195l-0.109,0.195l-0.111,0.194l-0.112,0.194l-0.113,0.192l-0.115,0.192l-0.115,0.191l-0.117,0.19l-0.117,0.19l-0.119,0.189l-0.12,0.188l-0.121,0.187l-0.122,0.187l-0.123,0.185l-0.124,0.185l-0.125,0.184l-0.126,0.184l-0.128,0.182l-0.128,0.182l-0.13,0.181l-0.13,0.18l-0.132,0.179l-0.133,0.179l-0.133,0.177l-0.135,0.177l-0.136,0.176l-0.137,0.175l-0.137,0.174l-0.139,0.174l-0.14,0.172l-0.141,0.172l-0.142,0.171l-0.143,0.17l-0.144,0.169l-0.145,0.168l-0.145,0.168l-0.147,0.166l-0.148,0.166l-0.149,0.165l-0.15,0.163l-0.15,0.163l-0.152,0.162l-0.153,0.161l-0.153,0.16l-0.155,0.16l-0.155,0.158l-0.157,0.157l-0.157,0.157l-0.159,0.155l-0.159,0.155l-0.16,0.153l-0.161,0.153l-0.162,0.152l-0.163,0.15l-0.164,0.15l-0.164,0.149l-0.166,0.148l-0.166,0.147l-0.168,0.146l-0.168,0.144l-0.169,0.144l-0.17,0.143l-0.171,0.142l-0.172,0.141l-0.172,0.14l-0.174,0.139l-0.174,0.138l-0.175,0.136l-0.176,0.136l-0.177,0.135l-0.177,0.134l-0.179,0.132l-0.179,0.132l-0.18,0.13l-0.181,0.13l-0.182,0.128l-0.182,0.128l-0.184,0.126l-0.184,0.125l-0.185,0.125l-0.186,0.123l-0.186,0.122l-0.187,0.121l-0.188,0.119l-0.189,0.119l-0.19,0.118l-0.19,0.116l-0.191,0.115l-0.192,0.115l-0.193,0.113l-0.193,0.112l-0.194,0.111l-0.195,0.109l-0.195,0.109l-0.197,0.107l-0.197,0.107l-0.197,0.105l-0.199,0.104l-0.199,0.103l-0.2,0.101l-0.2,0.101l-0.201,0.099l-0.202,0.098l-0.203,0.097l-0.203,0.096l-0.204,0.094l-0.204,0.094l-0.206,0.092l-0.206,0.091l-0.206,0.089l-0.207,0.089l-0.208,0.087l-0.209,0.086l-0.209,0.085l-0.21,0.083l-0.21,0.082l-0.211,0.082l-0.212,0.079l-0.212,0.079l-0.213,0.077l-0.213,0.076l-0.214,0.075l-0.215,0.073l-0.215,0.072l-0.216,0.071l-0.216,0.07l-0.217,0.068l-0.218,0.067l-0.218,0.066l-0.219,0.064l-0.219,0.063l-0.22,0.062l-0.22,0.06l-0.221,0.06l-0.221,0.057l-0.222,0.057l-0.223,0.055l-0.223,0.054l-0.223,0.052l-0.224,0.051l-0.225,0.05l-0.225,0.048l-0.226,0.047l-0.226,0.045l-0.226,0.045l-0.227,0.042l-0.228,0.042l-0.228,0.04l-0.228,0.039l-0.229,0.037l-0.229,0.036l-0.23,0.034l-0.23,0.033l-0.231,0.032l-0.231,0.03l-0.232,0.028l-0.232,0.028l-0.232,0.026l-0.233,0.024l-0.234,0.023l-0.233,0.022l-0.234,0.02l-0.235,0.018l-0.235,0.017l-0.235,0.016l-0.236,0.014l-0.236,0.013l-0.236,0.011l-0.237,0.01l-0.237,0.008l-0.237,0.007l-0.238,0.005l-0.239,0.004l-0.238,0.002l-0.239,0.001l-0.239,-0.001l-0.238,-0.002l-0.239,-0.004l-0.238,-0.005l-0.237,-0.007l-0.237,-0.008l-0.237,-0.01l-0.236,-0.011l-0.236,-0.013l-0.236,-0.014l-0.235,-0.016l-0.235,-0.017l-0.235,-0.018l-0.234,-0.02l-0.233,-0.022l-0.234,-0.023l-0.233,-0.024l-0.232,-0.026l-0.232,-0.028l-0.232,-0.028l-0.231,-0.03l-0.231,-0.032l-0.23,-0.033l-0.23,-0.034l-0.229,-0.036l-0.229,-0.037l-0.228,-0.039l-0.228,-0.04l-0.228,-0.042l-0.227,-0.042l-0.226,-0.045l-0.226,-0.045l-0.226,-0.047l-0.225,-0.048l-0.225,-0.05l-0.224,-0.051l-0.223,-0.052l-0.223,-0.054l-0.223,-0.055l-0.222,-0.057l-0.221,-0.057l-0.221,-0.06l-0.22,-0.06l-0.22,-0.062l-0.219,-0.063l-0.219,-0.064l-0.218,-0.066l-0.218,-0.067l-0.217,-0.068l-0.216,-0.07l-0.216,-0.071l-0.215,-0.072l-0.215,-0.073l-0.214,-0.075l-0.213,-0.076l-0.213,-0.077l-0.212,-0.079l-0.212,-0.079l-0.211,-0.082l-0.21,-0.082l-0.21,-0.083l-0.209,-0.085l-0.209,-0.086l-0.208,-0.087l-0.207,-0.089l-0.206,-0.089l-0.206,-0.091l-0.206,-0.092l-0.204,-0.094l-0.204,-0.094l-0.203,-0.096l-0.203,-0.097l-0.202,-0.098l-0.201,-0.099l-0.2,-0.101l-0.2,-0.101l-0.199,-0.103l-0.199,-0.104l-0.197,-0.105l-0.197,-0.107l-0.197,-0.107l-0.195,-0.109l-0.195,-0.109l-0.194,-0.111l-0.193,-0.112l-0.193,-0.113l-0.192,-0.115l-0.191,-0.115l-0.19,-0.116l-0.19,-0.118l-0.189,-0.119l-0.188,-0.119l-0.187,-0.121l-0.186,-0.122l-0.186,-0.123l-0.185,-0.125l-0.184,-0.125l-0.184,-0.126l-0.182,-0.128l-0.182,-0.128l-0.181,-0.13l-0.18,-0.13l-0.179,-0.132l-0.179,-0.132l-0.177,-0.134l-0.177,-0.135l-0.176,-0.136l-0.175,-0.136l-0.174,-0.138l-0.174,-0.139l-0.172,-0.14l-0.172,-0.141l-0.171,-0.142l-0.17,-0.143l-0.169,-0.144l-0.168,-0.144l-0.168,-0.146l-0.166,-0.147l-0.166,-0.148l-0.164,-0.149l-0.164,-0.15l-0.163,-0.15l-0.162,-0.152l-0.161,-0.153l-0.16,-0.153l-0.159,-0.155l-0.159,-0.155l-0.157,-0.157l-0.157,-0.157l-0.155,-0.158l-0.155,-0.16l-0.153,-0.16l-0.153,-0.161l-0.152,-0.162l-0.15,-0.163l-0.15,-0.163l-0.149,-0.165l-0.148,-0.166l-0.147,-0.166l-0.145,-0.168l-0.145,-0.168l-0.144,-0.169l-0.143,-0.17l-0.142,-0.171l-0.141,-0.172l-0.14,-0.172l-0.139,-0.174l-0.137,-0.174l-0.137,-0.175l-0.136,-0.176l-0.135,-0.177l-0.133,-0.177l-0.133,-0.179l-0.132,-0.179l-0.13,-0.18l-0.13,-0.181l-0.128,-0.182l-0.128,-0.182l-0.126,-0.184l-0.125,-0.184l-0.124,-0.185l-0.123,-0.185l-0.122,-0.187l-0.121,-0.187l-0.12,-0.188l-0.119,-0.189l-0.117,-0.19l-0.117,-0.19l-0.115,-0.191l-0.115,-0.192l-0.113,-0.192l-0.112,-0.194l-0.111,-0.194l-0.109,-0.195l-0.109,-0.195l-0.107,-0.196l-0.107,-0.197l-0.105,-0.198l-0.104,-0.198l-0.102,-0.2l-0.102,-0.199l-0.101,-0.201l-0.099,-0.201l-0.098,-0.202l-0.097,-0.202l-0.096,-0.204l-0.094,-0.204l-0.093,-0.204l-0.093,-0.205l-0.09,-0.206l-0.09,-0.207l-0.089,-0.207l-0.087,-0.208l-0.086,-0.208l-0.085,-0.21l-0.083,-0.209l-0.082,-0.211l-0.081,-0.211l-0.08,-0.211l-0.079,-0.213l-0.077,-0.213l-0.076,-0.213l-0.075,-0.214l-0.073,-0.215l-0.072,-0.215l-0.071,-0.216l-0.07,-0.216l-0.068,-0.217l-0.067,-0.218l-0.066,-0.218l-0.064,-0.219l-0.063,-0.219l-0.062,-0.22l-0.06,-0.22l-0.059,-0.221l-0.058,-0.221l-0.057,-0.222l-0.055,-0.223l-0.053,-0.223l-0.053,-0.223l-0.051,-0.224l-0.049,-0.225l-0.049,-0.225l-0.047,-0.225l-0.045,-0.227l-0.044,-0.226l-0.043,-0.227l-0.042,-0.228l-0.04,-0.228l-0.038,-0.228l-0.038,-0.229l-0.035,-0.229l-0.035,-0.23l-0.033,-0.23l-0.031,-0.231l-0.031,-0.231l-0.028,-0.232l-0.028,-0.232l-0.025,-0.232l-0.025,-0.233l-0.023,-0.233l-0.021,-0.234l-0.02,-0.234l-0.019,-0.235l-0.017,-0.235l-0.016,-0.235l-0.014,-0.235l-0.013,-0.236l-0.011,-0.237l-0.01,-0.237l-0.008,-0.237l-0.007,-0.237l-0.005,-0.238l-0.004,-0.238l-0.002,-0.239l-0.001,-0.24l0.002,-0.344l0.004,-0.345l0.008,-0.343l0.011,-0.343l0.014,-0.343l0.018,-0.341l0.02,-0.341l0.023,-0.34l0.027,-0.339l0.029,-0.338l0.033,-0.337l0.035,-0.337l0.039,-0.335l0.041,-0.335l0.045,-0.334l0.047,-0.333l0.051,-0.332l0.053,-0.331l0.057,-0.33l0.059,-0.329l0.062,-0.328l0.065,-0.327l0.068,-0.326l0.071,-0.325l0.073,-0.324l0.077,-0.323l0.079,-0.321l0.082,-0.321l0.085,-0.32l0.087,-0.318l0.091,-0.317l0.093,-0.316l0.096,-0.315l0.098,-0.314l0.102,-0.312l0.104,-0.312l0.106,-0.31l0.109,-0.308l0.112,-0.308l0.115,-0.306l0.117,-0.305l0.12,-0.304l0.122,-0.302l0.125,-0.301l0.128,-0.3l0.13,-0.298l0.133,-0.297l0.135,-0.296l0.137,-0.294l0.141,-0.293l0.142,-0.291l0.145,-0.29l0.148,-0.288l0.15,-0.287l0.152,-0.286l0.155,-0.284l0.157,-0.282l0.16,-0.281l0.162,-0.279l0.164,-0.278l0.167,-0.276l0.169,-0.275l0.171,-0.273l0.169,-0.264l3.37,2.155l-0.16,0.249l-0.152,0.244l-0.151,0.245l-0.149,0.246l-0.146,0.248l-0.145,0.249l-0.142,0.251l-0.14,0.252l-0.138,0.253l-0.136,0.254l-0.134,0.256l-0.132,0.257l-0.129,0.259l-0.127,0.26l-0.125,0.26l-0.123,0.263l-0.12,0.263l-0.119,0.265l-0.116,0.266l-0.113,0.267l-0.112,0.268l-0.109,0.27l-0.106,0.27l-0.105,0.272l-0.102,0.273l-0.1,0.274l-0.097,0.275l-0.095,0.276l-0.093,0.278l-0.09,0.278l-0.088,0.28l-0.085,0.28l-0.083,0.282l-0.081,0.283l-0.078,0.283l-0.075,0.285l-0.073,0.286l-0.071,0.286l-0.068,0.288l-0.066,0.289l-0.063,0.289l-0.06,0.291l-0.058,0.291l-0.056,0.293l-0.052,0.293l-0.051,0.294l-0.047,0.295l-0.045,0.296l-0.043,0.297l-0.039,0.298l-0.037,0.298l-0.035,0.3l-0.032,0.3l-0.029,0.301l-0.026,0.302l-0.023,0.302l-0.021,0.304l-0.018,0.304l-0.016,0.305l-0.012,0.305l-0.01,0.307l-0.007,0.307l-0.005,0.308l-0.001,0.31l0.001,0.212l0.002,0.213l0.003,0.213l0.005,0.212l0.006,0.212l0.007,0.212l0.009,0.212l0.01,0.211l0.011,0.21l0.013,0.211l0.014,0.21l0.015,0.209l0.017,0.21l0.018,0.209l0.019,0.208l0.021,0.208l0.021,0.208l0.023,0.207l0.025,0.207l0.025,0.207l0.027,0.206l0.028,0.206l0.03,0.205l0.031,0.205l0.032,0.204l0.033,0.204l0.034,0.204l0.036,0.203l0.037,0.203l0.038,0.202l0.039,0.202l0.041,0.202l0.042,0.201l0.043,0.2l0.044,0.2l0.046,0.2l0.046,0.199l0.048,0.199l0.049,0.198l0.05,0.198l0.052,0.197l0.053,0.197l0.053,0.197l0.055,0.195l0.057,0.196l0.057,0.195l0.059,0.194l0.059,0.194l0.061,0.193l0.062,0.193l0.063,0.192l0.065,0.192l0.065,0.191l0.067,0.191l0.067,0.19l0.069,0.19l0.07,0.189l0.071,0.189l0.072,0.188l0.074,0.187l0.074,0.187l0.076,0.187l0.076,0.185l0.078,0.186l0.079,0.184l0.08,0.185l0.081,0.183l0.082,0.183l0.083,0.182l0.084,0.182l0.086,0.181l0.086,0.181l0.088,0.18l0.088,0.179l0.09,0.179l0.09,0.178l0.092,0.178l0.093,0.177l0.093,0.176l0.095,0.175l0.096,0.175l0.097,0.175l0.098,0.173l0.099,0.174l0.099,0.172l0.101,0.172l0.102,0.171l0.103,0.17l0.104,0.17l0.105,0.169l0.106,0.169l0.107,0.167l0.108,0.167l0.108,0.167l0.11,0.165l0.111,0.165l0.112,0.165l0.112,0.163l0.114,0.163l0.115,0.162l0.115,0.162l0.117,0.16l0.117,0.16l0.119,0.16l0.119,0.158l0.12,0.158l0.121,0.157l0.122,0.156l0.123,0.156l0.124,0.155l0.125,0.154l0.126,0.153l0.127,0.152l0.127,0.152l0.129,0.151l0.129,0.15l0.13,0.15l0.131,0.148l0.132,0.148l0.133,0.147l0.134,0.146l0.134,0.146l0.136,0.144l0.136,0.144l0.137,0.143l0.138,0.142l0.139,0.141l0.139,0.141l0.141,0.139l0.141,0.139l0.142,0.138l0.143,0.137l0.144,0.137l0.145,0.135l0.145,0.135l0.146,0.133l0.147,0.133l0.148,0.132l0.149,0.131l0.149,0.13l0.15,0.13l0.151,0.128l0.152,0.128l0.152,0.126l0.154,0.126l0.154,0.125l0.154,0.124l0.156,0.123l0.156,0.122l0.157,0.121l0.158,0.12l0.159,0.12l0.159,0.118l0.16,0.117l0.16,0.117l0.162,0.116l0.162,0.114l0.163,0.114l0.163,0.112l0.165,0.112l0.165,0.111l0.165,0.11l0.167,0.109l0.167,0.107l0.168,0.107l0.168,0.106l0.169,0.105l0.17,0.104l0.17,0.103l0.171,0.102l0.172,0.101l0.173,0.1l0.173,0.099l0.173,0.097l0.175,0.097l0.175,0.096l0.175,0.095l0.177,0.094l0.177,0.092l0.177,0.092l0.178,0.091l0.179,0.089l0.179,0.089l0.18,0.087l0.181,0.086l0.181,0.086l0.182,0.084l0.182,0.083l0.183,0.082l0.184,0.081l0.184,0.08l0.184,0.079l0.186,0.078l0.186,0.076l0.186,0.076l0.187,0.074l0.187,0.074l0.188,0.072l0.189,0.071l0.189,0.07l0.19,0.069l0.19,0.068l0.191,0.066l0.191,0.066l0.192,0.064l0.192,0.063l0.193,0.062l0.193,0.061l0.194,0.06l0.195,0.058l0.194,0.057l0.196,0.057l0.196,0.055l0.196,0.054l0.197,0.052l0.197,0.052l0.198,0.05l0.198,0.049l0.199,0.048l0.199,0.047l0.2,0.045l0.2,0.044l0.2,0.043l0.201,0.042l0.202,0.041l0.202,0.039l0.202,0.038l0.203,0.037l0.203,0.036l0.204,0.034l0.204,0.034l0.204,0.032l0.205,0.03l0.206,0.03l0.205,0.028l0.206,0.027l0.207,0.025l0.207,0.025l0.207,0.023l0.208,0.022l0.208,0.02l0.209,0.019l0.208,0.018l0.21,0.017l0.209,0.015l0.21,0.014l0.211,0.013l0.21,0.011l0.212,0.01l0.211,0.009l0.212,0.007l0.212,0.006l0.212,0.005l0.213,0.003l0.213,0.002l0.214,0.001l0.214,-0.001l0.213,-0.002l0.213,-0.003l0.212,-0.005l0.212,-0.006l0.212,-0.007l0.211,-0.009l0.212,-0.01l0.21,-0.011l0.211,-0.013l0.21,-0.014l0.209,-0.015l0.21,-0.017l0.208,-0.018l0.209,-0.019l0.208,-0.02l0.208,-0.022l0.207,-0.023l0.207,-0.025l0.207,-0.025l0.206,-0.027l0.205,-0.028l0.206,-0.03l0.205,-0.03l0.204,-0.032l0.204,-0.034l0.204,-0.034l0.203,-0.036l0.203,-0.037l0.202,-0.038l0.202,-0.039l0.202,-0.041l0.201,-0.042l0.2,-0.043l0.2,-0.044l0.2,-0.045l0.199,-0.047l0.199,-0.048l0.198,-0.049l0.198,-0.05l0.197,-0.052l0.197,-0.052l0.196,-0.054l0.196,-0.055l0.196,-0.057l0.194,-0.057l0.195,-0.058l0.194,-0.06l0.193,-0.061l0.193,-0.062l0.192,-0.063l0.192,-0.064l0.191,-0.066l0.191,-0.066l0.19,-0.068l0.19,-0.069l0.189,-0.07l0.189,-0.071l0.188,-0.072l0.187,-0.074l0.187,-0.074l0.186,-0.076l0.186,-0.076l0.186,-0.078l0.184,-0.079l0.184,-0.08l0.184,-0.081l0.183,-0.082l0.182,-0.083l0.182,-0.084l0.181,-0.086l0.181,-0.086l0.18,-0.087l0.179,-0.089l0.179,-0.089l0.178,-0.091l0.177,-0.092l0.177,-0.092l0.177,-0.094l0.175,-0.095l0.175,-0.096l0.175,-0.097l0.173,-0.097l0.173,-0.099l0.173,-0.1l0.172,-0.101l0.171,-0.102l0.17,-0.103l0.17,-0.104l0.169,-0.105l0.168,-0.106l0.168,-0.107l0.167,-0.107l0.167,-0.109l0.165,-0.11l0.165,-0.111l0.165,-0.112l0.163,-0.112l0.163,-0.114l0.162,-0.114l0.162,-0.116l0.16,-0.117l0.16,-0.117l0.159,-0.118l0.159,-0.12l0.158,-0.12l0.157,-0.121l0.156,-0.122l0.156,-0.123l0.154,-0.124l0.154,-0.125l0.154,-0.126l0.152,-0.126l0.152,-0.128l0.151,-0.128l0.15,-0.13l0.149,-0.13l0.149,-0.131l0.148,-0.132l0.147,-0.133l0.146,-0.133l0.145,-0.135l0.145,-0.135l0.144,-0.137l0.143,-0.137l0.142,-0.138l0.141,-0.139l0.141,-0.139l0.139,-0.141l0.139,-0.141l0.138,-0.142l0.137,-0.143l0.136,-0.144l0.136,-0.144l0.134,-0.146l0.134,-0.146l0.133,-0.147l0.132,-0.148l0.131,-0.148l0.13,-0.15l0.129,-0.15l0.129,-0.151l0.127,-0.152l0.127,-0.152l0.126,-0.153l0.125,-0.154l0.124,-0.155l0.123,-0.156l0.122,-0.156l0.121,-0.157l0.12,-0.158l0.119,-0.158l0.119,-0.16l0.117,-0.16l0.117,-0.16l0.115,-0.162l0.115,-0.162l0.114,-0.163l0.112,-0.163l0.112,-0.165l0.111,-0.165l0.11,-0.165l0.108,-0.167l0.108,-0.167l0.107,-0.167l0.106,-0.169l0.105,-0.169l0.104,-0.17l0.103,-0.17l0.102,-0.171l0.101,-0.172l0.099,-0.172l0.099,-0.174l0.098,-0.173l0.097,-0.175l0.096,-0.175l0.095,-0.175l0.093,-0.176l0.093,-0.177l0.092,-0.178l0.09,-0.178l0.09,-0.179l0.088,-0.179l0.088,-0.18l0.086,-0.181l0.086,-0.181l0.084,-0.182l0.083,-0.182l0.082,-0.183l0.081,-0.183l0.08,-0.185l0.079,-0.184l0.078,-0.186l0.076,-0.185l0.076,-0.187l0.074,-0.187l0.074,-0.187l0.072,-0.188l0.071,-0.189l0.07,-0.189l0.069,-0.19l0.067,-0.19l0.067,-0.191l0.065,-0.191l0.065,-0.192l0.063,-0.192l0.062,-0.193l0.061,-0.193l0.059,-0.194l0.059,-0.194l0.057,-0.195l0.057,-0.196l0.055,-0.195l0.053,-0.197l0.053,-0.197l0.052,-0.197l0.05,-0.198l0.049,-0.198l0.048,-0.199l0.046,-0.199l0.046,-0.2l0.044,-0.2l0.043,-0.2l0.042,-0.201l0.041,-0.202l0.039,-0.202l0.038,-0.202l0.037,-0.203l0.036,-0.203l0.034,-0.204l0.033,-0.204l0.032,-0.204l0.031,-0.205l0.03,-0.205l0.028,-0.206l0.027,-0.206l0.025,-0.207l0.025,-0.207l0.023,-0.207l0.021,-0.208l0.021,-0.208l0.019,-0.208l0.018,-0.209l0.017,-0.21l0.015,-0.209l0.014,-0.21l0.013,-0.211l0.011,-0.21l0.01,-0.211l0.009,-0.212l0.007,-0.212l0.006,-0.212l0.005,-0.212l0.003,-0.213l0.002,-0.213l0.001,-0.214l-0.001,-0.213l-0.002,-0.214l-0.003,-0.212l-0.005,-0.213l-0.006,-0.212l-0.007,-0.212l-0.009,-0.211l-0.01,-0.211l-0.011,-0.211l-0.013,-0.211l-0.014,-0.21l-0.015,-0.209l-0.017,-0.209l-0.018,-0.209l-0.019,-0.209l-0.021,-0.208l-0.021,-0.208l-0.023,-0.207l-0.025,-0.207l-0.025,-0.206l-0.027,-0.207l-0.028,-0.205l-0.03,-0.206l-0.031,-0.205l-0.032,-0.204l-0.033,-0.204l-0.034,-0.204l-0.036,-0.203l-0.037,-0.203l-0.038,-0.202l-0.039,-0.202l-0.041,-0.202l-0.042,-0.2l-0.043,-0.201l-0.044,-0.2l-0.046,-0.2l-0.046,-0.199l-0.048,-0.199l-0.049,-0.198l-0.051,-0.198l-0.051,-0.197l-0.053,-0.197l-0.053,-0.196l-0.055,-0.196l-0.057,-0.195l-0.057,-0.195l-0.059,-0.195l-0.059,-0.193l-0.061,-0.194l-0.062,-0.193l-0.063,-0.192l-0.065,-0.192l-0.065,-0.191l-0.067,-0.191l-0.067,-0.19l-0.069,-0.19l-0.07,-0.189l-0.071,-0.188l-0.072,-0.188l-0.074,-0.188l-0.074,-0.187l-0.076,-0.186l-0.076,-0.186l-0.078,-0.185l-0.079,-0.185l-0.08,-0.184l-0.081,-0.184l-0.082,-0.183l-0.083,-0.182l-0.084,-0.182l-0.086,-0.181l-0.086,-0.181l-0.088,-0.18l-0.088,-0.179l-0.09,-0.179l-0.09,-0.178l-0.092,-0.177l-0.093,-0.177l-0.093,-0.176l-0.095,-0.176l-0.096,-0.175l-0.097,-0.174l-0.098,-0.174l-0.099,-0.173l-0.099,-0.173l-0.101,-0.171l-0.102,-0.172l-0.103,-0.17l-0.104,-0.17l-0.105,-0.169l-0.106,-0.168l-0.107,-0.168l-0.108,-0.167l-0.108,-0.166l-0.11,-0.166l-0.111,-0.165l-0.112,-0.164l-0.112,-0.164l-0.114,-0.163l-0.115,-0.162l-0.115,-0.161l-0.117,-0.161l-0.117,-0.16l-0.119,-0.159l-0.119,-0.159l-0.12,-0.158l-0.121,-0.157l-0.122,-0.156l-0.123,-0.155l-0.124,-0.155l-0.125,-0.154l-0.126,-0.154l-0.127,-0.152l-0.127,-0.152l-0.129,-0.151l-0.129,-0.15l-0.13,-0.149l-0.131,-0.149l-0.132,-0.148l-0.133,-0.147l-0.134,-0.146l-0.134,-0.145l-0.136,-0.145l-0.136,-0.144l-0.137,-0.143l-0.138,-0.142l-0.139,-0.141l-0.139,-0.141l-0.141,-0.139l-0.141,-0.139l-0.142,-0.138l-0.143,-0.137l-0.144,-0.136l-0.145,-0.136l-0.145,-0.134l-0.146,-0.134l-0.147,-0.133l-0.148,-0.132l-0.149,-0.131l-0.149,-0.13l-0.15,-0.129l-0.151,-0.129l-0.152,-0.127l-0.152,-0.127l-0.154,-0.126l-0.154,-0.124l-0.154,-0.124l-0.156,-0.123l-0.156,-0.123l-0.157,-0.121l-0.158,-0.12l-0.159,-0.119l-0.159,-0.119l-0.16,-0.117l-0.16,-0.117l-0.162,-0.115l-0.162,-0.115l-0.163,-0.113l-0.163,-0.113l-0.165,-0.112l-0.165,-0.111l-0.165,-0.109l-0.167,-0.109l-0.167,-0.108l-0.168,-0.107l-0.168,-0.106l-0.169,-0.105l-0.17,-0.104l-0.17,-0.103l-0.171,-0.102l-0.172,-0.1l-0.173,-0.1l-0.173,-0.099l-0.173,-0.098l-0.175,-0.097l-0.175,-0.096l-0.175,-0.094l-0.177,-0.094l-0.177,-0.093l-0.177,-0.092l-0.178,-0.09l-0.179,-0.09l-0.179,-0.088l-0.18,-0.088l-0.181,-0.086l-0.181,-0.085l-0.182,-0.085l-0.182,-0.083l-0.183,-0.082l-0.184,-0.081l-0.184,-0.08l-0.184,-0.079l-0.186,-0.077l-0.186,-0.077l-0.186,-0.076l-0.187,-0.074l-0.187,-0.073l-0.188,-0.073l-0.189,-0.071l-0.189,-0.07l-0.19,-0.069l-0.19,-0.067l-0.191,-0.067l-0.191,-0.065l-0.192,-0.065l-0.192,-0.063l-0.193,-0.062l-0.193,-0.061l-0.194,-0.059l-0.195,-0.059l-0.194,-0.057l-0.196,-0.056l-0.196,-0.055l-0.196,-0.054l-0.197,-0.053l-0.197,-0.051l-0.198,-0.051l-0.198,-0.049l-0.199,-0.048l-0.199,-0.046l-0.2,-0.046l-0.2,-0.044l-0.2,-0.043l-0.201,-0.042l-0.202,-0.041l-0.202,-0.039l-0.202,-0.038l-0.203,-0.037l-0.203,-0.036l-0.204,-0.034l-0.204,-0.033l-0.204,-0.032l-0.205,-0.031l-0.206,-0.029l-0.205,-0.029l-0.206,-0.026l-0.207,-0.026l-0.207,-0.024l-0.207,-0.023l-0.208,-0.022l-0.208,-0.021l-0.209,-0.019l-0.208,-0.018l-0.21,-0.016l-0.209,-0.016l-0.21,-0.014l-0.211,-0.012l-0.21,-0.012l-0.212,-0.01l-0.211,-0.009l-0.212,-0.007l-0.212,-0.006l-0.212,-0.005l-0.213,-0.003l-0.213,-0.002l-0.217,-0.001l-5.108,0l0,-4l5.114,0l0.236,0.001Z"/><path d="M51.125,48.175l26.031,4.829l-0.729,3.933l-27.552,-5.112l-10.725,-14.113l3.185,-2.42l9.79,12.883Z"/></svg>