<?xml version="1.0" encoding="UTF-8" standalone="no"?><!DOCTYPE svg PUBLIC "-//W3C//DTD SVG 1.1//EN" "http://www.w3.org/Graphics/SVG/1.1/DTD/svg11.dtd"><svg width="100%" height="100%" viewBox="0 0 100 100" version="1.1" xmlns="http://www.w3.org/2000/svg" xmlns:xlink="http://www.w3.org/1999/xlink" xml:space="preserve" xmlns:serif="http://www.serif.com/" style="fill-rule:evenodd;clip-rule:evenodd;stroke-linejoin:round;stroke-miterlimit:2;"><g><path d="M50.259,13.001l0.258,0.002l0.257,0.004l0.258,0.006l0.257,0.007l0.256,0.009l0.256,0.011l0.256,0.012l0.255,0.014l0.255,0.015l0.255,0.017l0.254,0.019l0.253,0.02l0.253,0.022l0.253,0.023l0.252,0.025l0.252,0.026l0.251,0.028l0.251,0.03l0.251,0.031l0.249,0.032l0.25,0.034l0.249,0.036l0.248,0.037l0.248,0.039l0.248,0.04l0.246,0.042l0.247,0.043l0.246,0.045l0.245,0.046l0.245,0.048l0.244,0.049l0.244,0.051l0.243,0.052l0.243,0.054l0.242,0.055l0.241,0.057l0.241,0.058l0.241,0.059l0.24,0.061l0.239,0.063l0.239,0.063l0.238,0.066l0.237,0.067l0.237,0.068l0.236,0.069l0.236,0.071l0.235,0.073l0.235,0.073l0.234,0.076l0.233,0.076l0.232,0.078l0.232,0.08l0.232,0.08l0.23,0.082l0.23,0.084l0.23,0.085l0.228,0.086l0.229,0.087l0.227,0.089l0.227,0.091l0.226,0.091l0.225,0.093l0.225,0.094l0.224,0.096l0.223,0.097l0.222,0.098l0.222,0.1l0.221,0.101l0.221,0.102l0.219,0.103l0.219,0.105l0.218,0.106l0.218,0.107l0.217,0.109l0.216,0.11l0.215,0.111l0.214,0.112l0.214,0.114l0.213,0.115l0.212,0.116l0.211,0.117l0.211,0.119l0.21,0.12l0.209,0.121l0.208,0.122l0.207,0.124l0.207,0.124l0.206,0.126l0.205,0.127l0.204,0.129l0.203,0.129l0.203,0.131l0.201,0.132l0.201,0.133l0.2,0.134l0.199,0.136l0.198,0.136l0.198,0.138l0.196,0.139l0.196,0.14l0.194,0.141l0.194,0.142l0.193,0.144l0.192,0.145l0.192,0.145l0.19,0.147l0.189,0.148l0.189,0.149l0.187,0.15l0.187,0.151l0.186,0.153l0.184,0.153l0.184,0.155l0.183,0.155l0.182,0.157l0.181,0.158l0.18,0.159l0.179,0.16l0.178,0.16l0.177,0.162l0.177,0.163l0.175,0.165l0.174,0.165l0.173,0.166l0.172,0.167l0.172,0.168l0.17,0.169l0.169,0.17l0.168,0.172l0.167,0.172l0.166,0.173l0.165,0.174l0.165,0.175l0.163,0.177l0.162,0.177l0.16,0.178l0.16,0.179l0.159,0.18l0.158,0.181l0.157,0.182l0.155,0.183l0.155,0.184l0.153,0.184l0.153,0.186l0.151,0.187l0.15,0.187l0.149,0.189l0.148,0.189l0.147,0.19l0.145,0.192l0.145,0.192l0.144,0.193l0.142,0.194l0.141,0.194l0.14,0.196l0.139,0.196l0.138,0.198l0.136,0.198l0.136,0.199l0.134,0.2l0.133,0.201l0.132,0.201l0.131,0.203l0.129,0.203l0.129,0.204l0.127,0.205l0.126,0.206l0.124,0.207l0.124,0.207l0.122,0.208l0.121,0.209l0.12,0.21l0.119,0.211l0.117,0.211l0.116,0.212l0.115,0.213l0.114,0.214l0.112,0.214l0.111,0.215l0.11,0.216l0.109,0.217l0.107,0.218l0.106,0.218l0.105,0.219l0.103,0.219l0.102,0.221l0.101,0.221l0.1,0.222l0.098,0.222l0.097,0.223l0.096,0.224l0.094,0.225l0.093,0.225l0.091,0.226l0.091,0.227l0.089,0.227l0.087,0.229l0.086,0.228l0.085,0.23l0.084,0.23l0.082,0.23l0.08,0.232l0.08,0.232l0.078,0.232l0.076,0.233l0.076,0.234l0.073,0.235l0.073,0.235l0.071,0.236l0.069,0.236l0.068,0.237l0.067,0.237l0.066,0.238l0.063,0.239l0.063,0.239l0.061,0.24l0.059,0.241l0.058,0.241l0.057,0.241l0.055,0.242l0.054,0.243l0.052,0.243l0.051,0.244l0.049,0.244l0.048,0.245l0.046,0.245l0.045,0.246l0.043,0.247l0.042,0.246l0.04,0.248l0.039,0.248l0.037,0.248l0.036,0.249l0.034,0.25l0.032,0.249l0.031,0.251l0.03,0.251l0.028,0.251l0.026,0.252l0.025,0.252l0.023,0.253l0.022,0.253l0.02,0.253l0.019,0.254l0.017,0.255l0.015,0.255l0.014,0.255l0.012,0.256l0.011,0.256l0.009,0.256l0.007,0.257l0.006,0.258l0.004,0.257l0.002,0.258l0.001,0.259l-0.001,0.259l-0.002,0.258l-0.004,0.257l-0.006,0.258l-0.007,0.257l-0.009,0.256l-0.011,0.256l-0.012,0.256l-0.014,0.255l-0.015,0.255l-0.017,0.255l-0.019,0.254l-0.02,0.253l-0.022,0.253l-0.023,0.253l-0.025,0.252l-0.026,0.252l-0.028,0.251l-0.03,0.251l-0.031,0.251l-0.032,0.249l-0.034,0.25l-0.036,0.249l-0.037,0.248l-0.039,0.248l-0.04,0.248l-0.042,0.246l-0.043,0.247l-0.045,0.246l-0.046,0.245l-0.048,0.245l-0.049,0.244l-0.051,0.244l-0.052,0.243l-0.054,0.243l-0.055,0.242l-0.057,0.241l-0.058,0.241l-0.059,0.241l-0.061,0.24l-0.063,0.239l-0.063,0.239l-0.066,0.238l-0.067,0.237l-0.068,0.237l-0.069,0.236l-0.071,0.236l-0.073,0.235l-0.073,0.235l-0.076,0.234l-0.076,0.233l-0.078,0.232l-0.08,0.232l-0.08,0.232l-0.082,0.23l-0.084,0.23l-0.085,0.23l-0.086,0.228l-0.087,0.229l-0.089,0.227l-0.091,0.227l-0.091,0.226l-0.093,0.225l-0.094,0.225l-0.096,0.224l-0.097,0.223l-0.098,0.222l-0.1,0.222l-0.101,0.221l-0.102,0.221l-0.103,0.219l-0.105,0.219l-0.106,0.218l-0.107,0.218l-0.109,0.217l-0.11,0.216l-0.111,0.215l-0.112,0.214l-0.114,0.214l-0.115,0.213l-0.116,0.212l-0.117,0.211l-0.119,0.211l-0.12,0.21l-0.121,0.209l-0.122,0.208l-0.124,0.207l-0.124,0.207l-0.126,0.206l-0.127,0.205l-0.129,0.204l-0.129,0.203l-0.131,0.203l-0.132,0.201l-0.133,0.201l-0.134,0.2l-0.136,0.199l-0.136,0.198l-0.138,0.198l-0.139,0.196l-0.14,0.196l-0.141,0.194l-0.142,0.194l-0.144,0.193l-0.145,0.192l-0.145,0.192l-0.147,0.19l-0.148,0.189l-0.149,0.189l-0.15,0.187l-0.151,0.187l-0.153,0.186l-0.153,0.184l-0.155,0.184l-0.155,0.183l-0.157,0.182l-0.158,0.181l-0.159,0.18l-0.16,0.179l-0.16,0.178l-0.162,0.177l-0.163,0.177l-0.165,0.175l-0.165,0.174l-0.166,0.173l-0.167,0.172l-0.168,0.172l-0.169,0.17l-0.17,0.169l-0.172,0.168l-0.172,0.167l-0.173,0.166l-0.174,0.165l-0.175,0.165l-0.177,0.163l-0.177,0.162l-0.178,0.16l-0.179,0.16l-0.18,0.159l-0.181,0.158l-0.182,0.157l-0.183,0.155l-0.184,0.155l-0.184,0.153l-0.186,0.153l-0.187,0.151l-0.187,0.15l-0.189,0.149l-0.189,0.148l-0.19,0.147l-0.192,0.145l-0.192,0.145l-0.193,0.144l-0.194,0.142l-0.194,0.141l-0.196,0.14l-0.196,0.139l-0.198,0.138l-0.198,0.136l-0.199,0.136l-0.2,0.134l-0.201,0.133l-0.201,0.132l-0.203,0.131l-0.203,0.129l-0.204,0.129l-0.205,0.127l-0.206,0.126l-0.207,0.124l-0.207,0.124l-0.208,0.122l-0.209,0.121l-0.21,0.12l-0.211,0.119l-0.211,0.117l-0.212,0.116l-0.213,0.115l-0.214,0.114l-0.214,0.112l-0.215,0.111l-0.216,0.11l-0.217,0.109l-0.218,0.107l-0.218,0.106l-0.219,0.105l-0.219,0.103l-0.221,0.102l-0.221,0.101l-0.222,0.1l-0.222,0.098l-0.223,0.097l-0.224,0.096l-0.225,0.094l-0.225,0.093l-0.226,0.091l-0.227,0.091l-0.227,0.089l-0.229,0.087l-0.228,0.086l-0.23,0.085l-0.23,0.084l-0.23,0.082l-0.232,0.08l-0.232,0.08l-0.232,0.078l-0.233,0.076l-0.234,0.076l-0.235,0.073l-0.235,0.073l-0.236,0.071l-0.236,0.069l-0.237,0.068l-0.237,0.067l-0.238,0.066l-0.239,0.063l-0.239,0.063l-0.24,0.061l-0.241,0.059l-0.241,0.058l-0.241,0.057l-0.242,0.055l-0.243,0.054l-0.243,0.052l-0.244,0.051l-0.244,0.049l-0.245,0.048l-0.245,0.046l-0.246,0.045l-0.247,0.043l-0.246,0.042l-0.248,0.04l-0.248,0.039l-0.248,0.037l-0.249,0.036l-0.25,0.034l-0.249,0.032l-0.251,0.031l-0.251,0.03l-0.251,0.028l-0.252,0.026l-0.252,0.025l-0.253,0.023l-0.253,0.022l-0.253,0.02l-0.254,0.019l-0.255,0.017l-0.255,0.015l-0.255,0.014l-0.256,0.012l-0.256,0.011l-0.256,0.009l-0.257,0.007l-0.258,0.006l-0.257,0.004l-0.258,0.002l-0.259,0.001l-0.259,-0.001l-0.258,-0.002l-0.257,-0.004l-0.258,-0.006l-0.257,-0.007l-0.256,-0.009l-0.256,-0.011l-0.256,-0.012l-0.255,-0.014l-0.255,-0.015l-0.255,-0.017l-0.254,-0.019l-0.253,-0.02l-0.253,-0.022l-0.253,-0.023l-0.252,-0.025l-0.252,-0.026l-0.251,-0.028l-0.251,-0.03l-0.251,-0.031l-0.249,-0.032l-0.25,-0.034l-0.249,-0.036l-0.248,-0.037l-0.248,-0.039l-0.248,-0.04l-0.246,-0.042l-0.247,-0.043l-0.246,-0.045l-0.245,-0.046l-0.245,-0.048l-0.244,-0.049l-0.244,-0.051l-0.243,-0.052l-0.243,-0.054l-0.242,-0.055l-0.241,-0.057l-0.241,-0.058l-0.241,-0.059l-0.24,-0.061l-0.239,-0.063l-0.239,-0.063l-0.238,-0.066l-0.237,-0.067l-0.237,-0.068l-0.236,-0.069l-0.236,-0.071l-0.235,-0.073l-0.235,-0.073l-0.234,-0.076l-0.233,-0.076l-0.232,-0.078l-0.232,-0.08l-0.232,-0.08l-0.23,-0.082l-0.23,-0.084l-0.23,-0.085l-0.228,-0.086l-0.229,-0.087l-0.227,-0.089l-0.227,-0.091l-0.226,-0.091l-0.225,-0.093l-0.225,-0.094l-0.224,-0.096l-0.223,-0.097l-0.222,-0.098l-0.222,-0.1l-0.221,-0.101l-0.221,-0.102l-0.219,-0.103l-0.219,-0.105l-0.218,-0.106l-0.218,-0.107l-0.217,-0.109l-0.216,-0.11l-0.215,-0.111l-0.214,-0.112l-0.214,-0.114l-0.213,-0.115l-0.212,-0.116l-0.211,-0.117l-0.211,-0.119l-0.21,-0.12l-0.209,-0.121l-0.208,-0.122l-0.207,-0.124l-0.207,-0.124l-0.206,-0.126l-0.205,-0.127l-0.204,-0.129l-0.203,-0.129l-0.203,-0.131l-0.201,-0.132l-0.201,-0.133l-0.2,-0.134l-0.199,-0.136l-0.198,-0.136l-0.198,-0.138l-0.196,-0.139l-0.196,-0.14l-0.194,-0.141l-0.194,-0.142l-0.193,-0.144l-0.192,-0.145l-0.192,-0.145l-0.19,-0.147l-0.189,-0.148l-0.189,-0.149l-0.187,-0.15l-0.187,-0.151l-0.186,-0.153l-0.184,-0.153l-0.184,-0.155l-0.183,-0.155l-0.182,-0.157l-0.181,-0.158l-0.18,-0.159l-0.179,-0.16l-0.178,-0.16l-0.177,-0.162l-0.177,-0.163l-0.175,-0.165l-0.174,-0.165l-0.173,-0.166l-0.172,-0.167l-0.172,-0.168l-0.17,-0.169l-0.169,-0.17l-0.168,-0.172l-0.167,-0.172l-0.166,-0.173l-0.165,-0.174l-0.165,-0.175l-0.163,-0.177l-0.162,-0.177l-0.16,-0.178l-0.16,-0.179l-0.159,-0.18l-0.158,-0.181l-0.157,-0.182l-0.155,-0.183l-0.155,-0.184l-0.153,-0.184l-0.153,-0.186l-0.151,-0.187l-0.15,-0.187l-0.149,-0.189l-0.148,-0.189l-0.147,-0.19l-0.145,-0.192l-0.145,-0.192l-0.144,-0.193l-0.142,-0.194l-0.141,-0.194l-0.14,-0.196l-0.139,-0.196l-0.138,-0.198l-0.136,-0.198l-0.136,-0.199l-0.134,-0.2l-0.133,-0.201l-0.132,-0.201l-0.131,-0.203l-0.129,-0.203l-0.129,-0.204l-0.127,-0.205l-0.126,-0.206l-0.124,-0.207l-0.124,-0.207l-0.122,-0.208l-0.121,-0.209l-0.12,-0.21l-0.119,-0.211l-0.117,-0.211l-0.116,-0.212l-0.115,-0.213l-0.114,-0.214l-0.112,-0.214l-0.111,-0.215l-0.11,-0.216l-0.109,-0.217l-0.107,-0.218l-0.106,-0.218l-0.105,-0.219l-0.103,-0.219l-0.102,-0.221l-0.101,-0.221l-0.1,-0.222l-0.098,-0.222l-0.097,-0.223l-0.096,-0.224l-0.094,-0.225l-0.093,-0.225l-0.091,-0.226l-0.091,-0.227l-0.089,-0.227l-0.087,-0.229l-0.086,-0.228l-0.085,-0.23l-0.084,-0.23l-0.082,-0.23l-0.08,-0.232l-0.08,-0.232l-0.078,-0.232l-0.076,-0.233l-0.076,-0.234l-0.073,-0.235l-0.073,-0.235l-0.071,-0.236l-0.069,-0.236l-0.068,-0.237l-0.067,-0.237l-0.066,-0.238l-0.063,-0.239l-0.063,-0.239l-0.061,-0.24l-0.059,-0.241l-0.058,-0.241l-0.057,-0.241l-0.055,-0.242l-0.054,-0.243l-0.052,-0.243l-0.051,-0.244l-0.049,-0.244l-0.048,-0.245l-0.046,-0.245l-0.045,-0.246l-0.043,-0.247l-0.042,-0.246l-0.04,-0.248l-0.039,-0.248l-0.037,-0.248l-0.036,-0.249l-0.034,-0.25l-0.032,-0.249l-0.031,-0.251l-0.03,-0.251l-0.028,-0.251l-0.026,-0.252l-0.025,-0.252l-0.023,-0.253l-0.022,-0.253l-0.02,-0.253l-0.019,-0.254l-0.017,-0.255l-0.015,-0.255l-0.014,-0.255l-0.012,-0.256l-0.011,-0.256l-0.009,-0.256l-0.007,-0.257l-0.006,-0.258l-0.004,-0.257l-0.002,-0.258l-0.001,-0.259l0.001,-0.259l0.002,-0.258l0.004,-0.257l0.006,-0.258l0.007,-0.257l0.009,-0.256l0.011,-0.256l0.012,-0.256l0.014,-0.255l0.015,-0.255l0.017,-0.255l0.019,-0.254l0.02,-0.253l0.022,-0.253l0.023,-0.253l0.025,-0.252l0.026,-0.252l0.028,-0.251l0.03,-0.251l0.031,-0.251l0.032,-0.249l0.034,-0.25l0.036,-0.249l0.037,-0.248l0.039,-0.248l0.04,-0.248l0.042,-0.246l0.043,-0.247l0.045,-0.246l0.046,-0.245l0.048,-0.245l0.049,-0.244l0.051,-0.244l0.052,-0.243l0.054,-0.243l0.055,-0.242l0.057,-0.241l0.058,-0.241l0.059,-0.241l0.061,-0.24l0.063,-0.239l0.063,-0.239l0.066,-0.238l0.067,-0.237l0.068,-0.237l0.069,-0.236l0.071,-0.236l0.073,-0.235l0.073,-0.235l0.076,-0.234l0.076,-0.233l0.078,-0.232l0.08,-0.232l0.08,-0.232l0.082,-0.23l0.084,-0.23l0.085,-0.23l0.086,-0.228l0.087,-0.229l0.089,-0.227l0.091,-0.227l0.091,-0.226l0.093,-0.225l0.094,-0.225l0.096,-0.224l0.097,-0.223l0.098,-0.222l0.1,-0.222l0.101,-0.221l0.102,-0.221l0.103,-0.219l0.105,-0.219l0.106,-0.218l0.107,-0.218l0.109,-0.217l0.11,-0.216l0.111,-0.215l0.112,-0.214l0.114,-0.214l0.115,-0.213l0.116,-0.212l0.117,-0.211l0.119,-0.211l0.12,-0.21l0.121,-0.209l0.122,-0.208l0.124,-0.207l0.124,-0.207l0.126,-0.206l0.127,-0.205l0.129,-0.204l0.129,-0.203l0.131,-0.203l0.132,-0.201l0.133,-0.201l0.134,-0.2l0.136,-0.199l0.136,-0.198l0.138,-0.198l0.139,-0.196l0.14,-0.196l0.141,-0.194l0.142,-0.194l0.144,-0.193l0.145,-0.192l0.145,-0.192l0.147,-0.19l0.148,-0.189l0.149,-0.189l0.15,-0.187l0.151,-0.187l0.153,-0.186l0.153,-0.184l0.155,-0.184l0.155,-0.183l0.157,-0.182l0.158,-0.181l0.159,-0.18l0.16,-0.179l0.16,-0.178l0.162,-0.177l0.163,-0.177l0.165,-0.175l0.165,-0.174l0.166,-0.173l0.167,-0.172l0.168,-0.172l0.169,-0.17l0.17,-0.169l0.172,-0.168l0.172,-0.167l0.173,-0.166l0.174,-0.165l0.175,-0.165l0.177,-0.163l0.177,-0.162l0.178,-0.16l0.179,-0.16l0.18,-0.159l0.181,-0.158l0.182,-0.157l0.183,-0.155l0.184,-0.155l0.184,-0.153l0.186,-0.153l0.187,-0.151l0.187,-0.15l0.189,-0.149l0.189,-0.148l0.19,-0.147l0.192,-0.145l0.192,-0.145l0.193,-0.144l0.194,-0.142l0.194,-0.141l0.196,-0.14l0.196,-0.139l0.198,-0.138l0.198,-0.136l0.199,-0.136l0.2,-0.134l0.201,-0.133l0.201,-0.132l0.203,-0.131l0.203,-0.129l0.204,-0.129l0.205,-0.127l0.206,-0.126l0.207,-0.124l0.207,-0.124l0.208,-0.122l0.209,-0.121l0.21,-0.12l0.211,-0.119l0.211,-0.117l0.212,-0.116l0.213,-0.115l0.214,-0.114l0.214,-0.112l0.215,-0.111l0.216,-0.11l0.217,-0.109l0.218,-0.107l0.218,-0.106l0.219,-0.105l0.219,-0.103l0.221,-0.102l0.221,-0.101l0.222,-0.1l0.222,-0.098l0.223,-0.097l0.224,-0.096l0.225,-0.094l0.225,-0.093l0.226,-0.091l0.227,-0.091l0.227,-0.089l0.229,-0.087l0.228,-0.086l0.23,-0.085l0.23,-0.084l0.23,-0.082l0.232,-0.08l0.232,-0.08l0.232,-0.078l0.233,-0.076l0.234,-0.076l0.235,-0.073l0.235,-0.073l0.236,-0.071l0.236,-0.069l0.237,-0.068l0.237,-0.067l0.238,-0.066l0.239,-0.063l0.239,-0.063l0.24,-0.061l0.241,-0.059l0.241,-0.058l0.241,-0.057l0.242,-0.055l0.243,-0.054l0.243,-0.052l0.244,-0.051l0.244,-0.049l0.245,-0.048l0.245,-0.046l0.246,-0.045l0.247,-0.043l0.246,-0.042l0.248,-0.04l0.248,-0.039l0.248,-0.037l0.249,-0.036l0.25,-0.034l0.249,-0.032l0.251,-0.031l0.251,-0.03l0.251,-0.028l0.252,-0.026l0.252,-0.025l0.253,-0.023l0.253,-0.022l0.253,-0.02l0.254,-0.019l0.255,-0.017l0.255,-0.015l0.255,-0.014l0.256,-0.012l0.256,-0.011l0.256,-0.009l0.257,-0.007l0.258,-0.006l0.257,-0.004l0.258,-0.002l0.259,-0.001l0.259,0.001Zm-0.492,4l-0.233,0.002l-0.232,0.004l-0.232,0.005l-0.232,0.006l-0.231,0.008l-0.231,0.01l-0.23,0.011l-0.23,0.012l-0.23,0.014l-0.229,0.015l-0.229,0.017l-0.228,0.018l-0.228,0.02l-0.228,0.021l-0.227,0.022l-0.226,0.024l-0.226,0.025l-0.226,0.027l-0.226,0.028l-0.224,0.029l-0.225,0.031l-0.224,0.032l-0.223,0.033l-0.223,0.035l-0.223,0.036l-0.222,0.038l-0.222,0.039l-0.221,0.04l-0.221,0.042l-0.22,0.043l-0.219,0.044l-0.22,0.046l-0.218,0.046l-0.219,0.049l-0.217,0.049l-0.218,0.051l-0.216,0.052l-0.216,0.054l-0.216,0.055l-0.215,0.056l-0.215,0.057l-0.214,0.059l-0.213,0.06l-0.214,0.061l-0.212,0.063l-0.212,0.064l-0.211,0.065l-0.211,0.066l-0.21,0.068l-0.21,0.069l-0.209,0.07l-0.209,0.071l-0.208,0.073l-0.207,0.074l-0.207,0.075l-0.206,0.076l-0.206,0.077l-0.205,0.079l-0.205,0.08l-0.203,0.081l-0.204,0.083l-0.202,0.083l-0.202,0.085l-0.202,0.086l-0.201,0.087l-0.2,0.089l-0.199,0.089l-0.199,0.091l-0.198,0.092l-0.198,0.093l-0.197,0.094l-0.196,0.095l-0.196,0.097l-0.195,0.098l-0.194,0.098l-0.194,0.1l-0.193,0.102l-0.192,0.102l-0.192,0.103l-0.191,0.105l-0.19,0.105l-0.189,0.107l-0.189,0.108l-0.188,0.109l-0.188,0.11l-0.186,0.111l-0.186,0.112l-0.185,0.114l-0.185,0.114l-0.184,0.116l-0.183,0.116l-0.182,0.118l-0.181,0.119l-0.181,0.12l-0.18,0.12l-0.179,0.122l-0.179,0.123l-0.178,0.124l-0.176,0.125l-0.177,0.126l-0.175,0.128l-0.174,0.128l-0.174,0.129l-0.173,0.13l-0.172,0.131l-0.172,0.133l-0.17,0.133l-0.17,0.134l-0.169,0.135l-0.168,0.136l-0.167,0.138l-0.167,0.138l-0.165,0.139l-0.165,0.14l-0.164,0.141l-0.163,0.142l-0.162,0.143l-0.161,0.144l-0.161,0.145l-0.159,0.146l-0.159,0.147l-0.158,0.148l-0.157,0.149l-0.156,0.149l-0.155,0.151l-0.154,0.151l-0.153,0.153l-0.153,0.153l-0.151,0.154l-0.151,0.155l-0.149,0.156l-0.149,0.157l-0.148,0.158l-0.147,0.159l-0.146,0.159l-0.145,0.161l-0.144,0.161l-0.143,0.162l-0.142,0.163l-0.141,0.164l-0.14,0.165l-0.139,0.165l-0.138,0.167l-0.138,0.167l-0.136,0.168l-0.135,0.169l-0.134,0.17l-0.133,0.17l-0.133,0.172l-0.131,0.172l-0.13,0.173l-0.129,0.174l-0.128,0.174l-0.128,0.175l-0.126,0.177l-0.125,0.176l-0.124,0.178l-0.123,0.179l-0.122,0.179l-0.12,0.18l-0.12,0.181l-0.119,0.181l-0.118,0.182l-0.116,0.183l-0.116,0.184l-0.114,0.185l-0.114,0.185l-0.112,0.186l-0.111,0.186l-0.11,0.188l-0.109,0.188l-0.108,0.189l-0.107,0.189l-0.105,0.19l-0.105,0.191l-0.103,0.192l-0.102,0.192l-0.102,0.193l-0.1,0.194l-0.098,0.194l-0.098,0.195l-0.097,0.196l-0.095,0.196l-0.094,0.197l-0.093,0.198l-0.092,0.198l-0.091,0.199l-0.089,0.199l-0.089,0.2l-0.087,0.201l-0.086,0.202l-0.085,0.202l-0.083,0.202l-0.083,0.204l-0.081,0.203l-0.08,0.205l-0.079,0.205l-0.077,0.206l-0.076,0.206l-0.075,0.207l-0.074,0.207l-0.073,0.208l-0.071,0.209l-0.07,0.209l-0.069,0.21l-0.068,0.21l-0.066,0.211l-0.065,0.211l-0.064,0.212l-0.063,0.212l-0.061,0.214l-0.06,0.213l-0.059,0.214l-0.057,0.215l-0.056,0.215l-0.055,0.216l-0.054,0.216l-0.052,0.216l-0.051,0.218l-0.049,0.217l-0.049,0.219l-0.046,0.218l-0.046,0.22l-0.044,0.219l-0.043,0.22l-0.042,0.221l-0.04,0.221l-0.039,0.222l-0.038,0.222l-0.036,0.223l-0.035,0.223l-0.033,0.223l-0.032,0.224l-0.031,0.225l-0.029,0.224l-0.028,0.226l-0.027,0.226l-0.025,0.226l-0.024,0.226l-0.022,0.227l-0.021,0.228l-0.02,0.228l-0.018,0.228l-0.017,0.229l-0.015,0.229l-0.014,0.23l-0.012,0.23l-0.011,0.23l-0.01,0.231l-0.008,0.231l-0.006,0.232l-0.005,0.232l-0.004,0.232l-0.002,0.233l-0.001,0.233l0.001,0.233l0.002,0.233l0.004,0.232l0.005,0.232l0.006,0.232l0.008,0.231l0.01,0.231l0.011,0.23l0.012,0.23l0.014,0.23l0.015,0.229l0.017,0.229l0.018,0.228l0.02,0.228l0.021,0.228l0.022,0.227l0.024,0.226l0.025,0.226l0.027,0.226l0.028,0.226l0.029,0.224l0.031,0.225l0.032,0.224l0.033,0.223l0.035,0.223l0.036,0.223l0.038,0.222l0.039,0.222l0.04,0.221l0.042,0.221l0.043,0.22l0.044,0.219l0.046,0.22l0.046,0.218l0.049,0.219l0.049,0.217l0.051,0.218l0.052,0.216l0.054,0.216l0.055,0.216l0.056,0.215l0.057,0.215l0.059,0.214l0.06,0.213l0.061,0.214l0.063,0.212l0.064,0.212l0.065,0.211l0.066,0.211l0.068,0.21l0.069,0.21l0.07,0.209l0.071,0.209l0.073,0.208l0.074,0.207l0.075,0.207l0.076,0.206l0.077,0.206l0.079,0.205l0.08,0.205l0.081,0.203l0.083,0.204l0.083,0.202l0.085,0.202l0.086,0.202l0.087,0.201l0.089,0.2l0.089,0.199l0.091,0.199l0.092,0.198l0.093,0.198l0.094,0.197l0.095,0.196l0.097,0.196l0.098,0.195l0.098,0.194l0.1,0.194l0.102,0.193l0.102,0.192l0.103,0.192l0.105,0.191l0.105,0.19l0.107,0.189l0.108,0.189l0.109,0.188l0.11,0.188l0.111,0.186l0.112,0.186l0.114,0.185l0.114,0.185l0.116,0.184l0.116,0.183l0.118,0.182l0.119,0.181l0.12,0.181l0.12,0.18l0.122,0.179l0.123,0.179l0.124,0.178l0.125,0.176l0.126,0.177l0.128,0.175l0.128,0.174l0.129,0.174l0.13,0.173l0.131,0.172l0.133,0.172l0.133,0.17l0.134,0.17l0.135,0.169l0.136,0.168l0.138,0.167l0.138,0.167l0.139,0.165l0.14,0.165l0.141,0.164l0.142,0.163l0.143,0.162l0.144,0.161l0.145,0.161l0.146,0.159l0.147,0.159l0.148,0.158l0.149,0.157l0.149,0.156l0.151,0.155l0.151,0.154l0.153,0.153l0.153,0.153l0.154,0.151l0.155,0.151l0.156,0.149l0.157,0.149l0.158,0.148l0.159,0.147l0.159,0.146l0.161,0.145l0.161,0.144l0.162,0.143l0.163,0.142l0.164,0.141l0.165,0.14l0.165,0.139l0.167,0.138l0.167,0.138l0.168,0.136l0.169,0.135l0.17,0.134l0.17,0.133l0.172,0.133l0.172,0.131l0.173,0.13l0.173,0.129l0.175,0.128l0.175,0.128l0.177,0.126l0.177,0.125l0.177,0.124l0.179,0.123l0.179,0.122l0.18,0.12l0.181,0.12l0.181,0.119l0.182,0.118l0.183,0.116l0.184,0.116l0.185,0.114l0.185,0.114l0.186,0.112l0.187,0.111l0.187,0.11l0.188,0.109l0.189,0.108l0.189,0.107l0.19,0.105l0.191,0.105l0.192,0.103l0.192,0.102l0.193,0.102l0.194,0.1l0.194,0.098l0.195,0.098l0.196,0.097l0.196,0.095l0.197,0.094l0.198,0.093l0.198,0.092l0.199,0.091l0.199,0.089l0.2,0.089l0.201,0.087l0.202,0.086l0.202,0.085l0.202,0.083l0.204,0.083l0.203,0.081l0.205,0.08l0.205,0.079l0.206,0.077l0.206,0.076l0.207,0.075l0.207,0.074l0.208,0.073l0.209,0.071l0.209,0.07l0.21,0.069l0.21,0.068l0.211,0.066l0.211,0.065l0.212,0.064l0.212,0.063l0.214,0.061l0.213,0.06l0.214,0.059l0.215,0.057l0.215,0.056l0.216,0.055l0.216,0.054l0.217,0.052l0.217,0.051l0.217,0.049l0.219,0.049l0.218,0.046l0.22,0.046l0.219,0.044l0.221,0.043l0.22,0.042l0.221,0.04l0.222,0.039l0.222,0.038l0.223,0.036l0.223,0.035l0.223,0.033l0.224,0.032l0.225,0.031l0.224,0.029l0.226,0.028l0.226,0.027l0.226,0.025l0.226,0.024l0.227,0.022l0.228,0.021l0.228,0.02l0.228,0.018l0.229,0.017l0.229,0.015l0.23,0.014l0.23,0.012l0.23,0.011l0.231,0.01l0.231,0.008l0.232,0.006l0.232,0.005l0.232,0.004l0.233,0.002l0.233,0.001l0.233,-0.001l0.233,-0.002l0.232,-0.004l0.232,-0.005l0.232,-0.006l0.231,-0.008l0.231,-0.01l0.23,-0.011l0.23,-0.012l0.23,-0.014l0.229,-0.015l0.229,-0.017l0.228,-0.018l0.228,-0.02l0.228,-0.021l0.227,-0.022l0.226,-0.024l0.226,-0.025l0.226,-0.027l0.226,-0.028l0.224,-0.029l0.225,-0.031l0.224,-0.032l0.223,-0.033l0.223,-0.035l0.223,-0.036l0.222,-0.038l0.222,-0.039l0.221,-0.04l0.22,-0.042l0.221,-0.043l0.219,-0.044l0.22,-0.046l0.218,-0.046l0.219,-0.049l0.217,-0.049l0.217,-0.051l0.217,-0.052l0.216,-0.054l0.216,-0.055l0.215,-0.056l0.215,-0.057l0.214,-0.059l0.213,-0.06l0.214,-0.061l0.212,-0.063l0.212,-0.064l0.211,-0.065l0.211,-0.066l0.21,-0.068l0.21,-0.069l0.209,-0.07l0.209,-0.071l0.208,-0.073l0.207,-0.074l0.207,-0.075l0.206,-0.076l0.206,-0.077l0.205,-0.079l0.205,-0.08l0.203,-0.081l0.204,-0.083l0.202,-0.083l0.202,-0.085l0.202,-0.086l0.201,-0.087l0.2,-0.089l0.199,-0.089l0.199,-0.091l0.198,-0.092l0.198,-0.093l0.197,-0.094l0.196,-0.095l0.196,-0.097l0.195,-0.098l0.194,-0.098l0.194,-0.1l0.193,-0.102l0.192,-0.102l0.192,-0.103l0.191,-0.105l0.19,-0.105l0.189,-0.107l0.189,-0.108l0.188,-0.109l0.187,-0.11l0.187,-0.111l0.186,-0.112l0.185,-0.114l0.185,-0.114l0.184,-0.116l0.183,-0.116l0.182,-0.118l0.181,-0.119l0.181,-0.12l0.18,-0.12l0.179,-0.122l0.179,-0.123l0.177,-0.124l0.177,-0.125l0.177,-0.126l0.175,-0.128l0.175,-0.128l0.173,-0.129l0.173,-0.13l0.172,-0.131l0.172,-0.133l0.17,-0.133l0.17,-0.134l0.169,-0.135l0.168,-0.136l0.167,-0.138l0.167,-0.138l0.165,-0.139l0.165,-0.14l0.164,-0.141l0.163,-0.142l0.162,-0.143l0.161,-0.144l0.161,-0.145l0.159,-0.146l0.159,-0.147l0.158,-0.148l0.157,-0.149l0.156,-0.149l0.155,-0.151l0.154,-0.151l0.153,-0.153l0.153,-0.153l0.151,-0.154l0.151,-0.155l0.149,-0.156l0.149,-0.157l0.148,-0.158l0.147,-0.159l0.146,-0.159l0.145,-0.161l0.144,-0.161l0.143,-0.162l0.142,-0.163l0.141,-0.164l0.14,-0.165l0.139,-0.165l0.138,-0.167l0.138,-0.167l0.136,-0.168l0.135,-0.169l0.134,-0.17l0.133,-0.17l0.133,-0.172l0.131,-0.172l0.13,-0.173l0.129,-0.173l0.128,-0.175l0.128,-0.175l0.126,-0.177l0.125,-0.177l0.124,-0.177l0.123,-0.179l0.122,-0.179l0.12,-0.18l0.12,-0.181l0.119,-0.181l0.118,-0.182l0.116,-0.183l0.116,-0.184l0.114,-0.185l0.114,-0.185l0.112,-0.186l0.111,-0.187l0.11,-0.187l0.109,-0.188l0.108,-0.189l0.107,-0.189l0.105,-0.19l0.105,-0.191l0.103,-0.192l0.102,-0.192l0.102,-0.193l0.1,-0.194l0.098,-0.194l0.098,-0.195l0.097,-0.196l0.095,-0.196l0.094,-0.197l0.093,-0.198l0.092,-0.198l0.091,-0.199l0.089,-0.199l0.089,-0.2l0.087,-0.201l0.086,-0.202l0.085,-0.202l0.083,-0.202l0.083,-0.204l0.081,-0.203l0.08,-0.205l0.079,-0.205l0.077,-0.206l0.076,-0.206l0.075,-0.207l0.074,-0.207l0.073,-0.208l0.071,-0.209l0.07,-0.209l0.069,-0.21l0.068,-0.21l0.066,-0.211l0.065,-0.211l0.064,-0.212l0.063,-0.212l0.061,-0.214l0.06,-0.213l0.059,-0.214l0.057,-0.215l0.056,-0.215l0.055,-0.216l0.054,-0.216l0.052,-0.217l0.051,-0.217l0.049,-0.217l0.049,-0.219l0.046,-0.218l0.046,-0.22l0.044,-0.219l0.043,-0.221l0.042,-0.22l0.04,-0.221l0.039,-0.222l0.038,-0.222l0.036,-0.223l0.035,-0.223l0.033,-0.223l0.032,-0.224l0.031,-0.225l0.029,-0.224l0.028,-0.226l0.027,-0.226l0.025,-0.226l0.024,-0.226l0.022,-0.227l0.021,-0.228l0.02,-0.228l0.018,-0.228l0.017,-0.229l0.015,-0.229l0.014,-0.23l0.012,-0.23l0.011,-0.23l0.01,-0.231l0.008,-0.231l0.006,-0.232l0.005,-0.232l0.004,-0.232l0.002,-0.233l0.001,-0.233l-0.001,-0.233l-0.002,-0.233l-0.004,-0.232l-0.005,-0.232l-0.006,-0.232l-0.008,-0.231l-0.01,-0.231l-0.011,-0.23l-0.012,-0.23l-0.014,-0.23l-0.015,-0.229l-0.017,-0.229l-0.018,-0.228l-0.02,-0.228l-0.021,-0.228l-0.022,-0.227l-0.024,-0.226l-0.025,-0.226l-0.027,-0.226l-0.028,-0.226l-0.029,-0.224l-0.031,-0.225l-0.032,-0.224l-0.033,-0.223l-0.035,-0.223l-0.036,-0.223l-0.038,-0.222l-0.039,-0.222l-0.04,-0.221l-0.042,-0.22l-0.043,-0.221l-0.044,-0.219l-0.046,-0.22l-0.046,-0.218l-0.049,-0.219l-0.049,-0.217l-0.051,-0.217l-0.052,-0.217l-0.054,-0.216l-0.055,-0.216l-0.056,-0.215l-0.057,-0.215l-0.059,-0.214l-0.06,-0.213l-0.061,-0.214l-0.063,-0.212l-0.064,-0.212l-0.065,-0.211l-0.066,-0.211l-0.068,-0.21l-0.069,-0.21l-0.07,-0.209l-0.071,-0.209l-0.073,-0.208l-0.074,-0.207l-0.075,-0.207l-0.076,-0.206l-0.077,-0.206l-0.079,-0.205l-0.08,-0.205l-0.081,-0.203l-0.083,-0.204l-0.083,-0.202l-0.085,-0.202l-0.086,-0.202l-0.087,-0.201l-0.089,-0.2l-0.089,-0.199l-0.091,-0.199l-0.092,-0.198l-0.093,-0.198l-0.094,-0.197l-0.095,-0.196l-0.097,-0.196l-0.098,-0.195l-0.098,-0.194l-0.1,-0.194l-0.102,-0.193l-0.102,-0.192l-0.103,-0.192l-0.105,-0.191l-0.105,-0.19l-0.107,-0.189l-0.108,-0.189l-0.109,-0.188l-0.11,-0.187l-0.111,-0.187l-0.112,-0.186l-0.114,-0.185l-0.114,-0.185l-0.116,-0.184l-0.116,-0.183l-0.118,-0.182l-0.119,-0.181l-0.12,-0.181l-0.12,-0.18l-0.122,-0.179l-0.123,-0.179l-0.124,-0.177l-0.125,-0.177l-0.126,-0.177l-0.128,-0.175l-0.128,-0.175l-0.129,-0.173l-0.13,-0.173l-0.131,-0.172l-0.133,-0.172l-0.133,-0.17l-0.134,-0.17l-0.135,-0.169l-0.136,-0.168l-0.138,-0.167l-0.138,-0.167l-0.139,-0.165l-0.14,-0.165l-0.141,-0.164l-0.142,-0.163l-0.143,-0.162l-0.144,-0.161l-0.145,-0.161l-0.146,-0.159l-0.147,-0.159l-0.148,-0.158l-0.149,-0.157l-0.149,-0.156l-0.151,-0.155l-0.151,-0.154l-0.153,-0.153l-0.153,-0.153l-0.154,-0.151l-0.155,-0.151l-0.156,-0.149l-0.157,-0.149l-0.158,-0.148l-0.159,-0.147l-0.159,-0.146l-0.161,-0.145l-0.161,-0.144l-0.162,-0.143l-0.163,-0.142l-0.164,-0.141l-0.165,-0.14l-0.165,-0.139l-0.167,-0.138l-0.167,-0.138l-0.168,-0.136l-0.169,-0.135l-0.17,-0.134l-0.17,-0.133l-0.172,-0.133l-0.172,-0.131l-0.173,-0.13l-0.174,-0.129l-0.174,-0.128l-0.175,-0.128l-0.177,-0.126l-0.176,-0.125l-0.178,-0.124l-0.179,-0.123l-0.179,-0.122l-0.18,-0.12l-0.181,-0.12l-0.181,-0.119l-0.182,-0.118l-0.183,-0.116l-0.184,-0.116l-0.185,-0.114l-0.185,-0.114l-0.186,-0.112l-0.186,-0.111l-0.188,-0.11l-0.188,-0.109l-0.189,-0.108l-0.189,-0.107l-0.19,-0.105l-0.191,-0.105l-0.192,-0.103l-0.192,-0.102l-0.193,-0.102l-0.194,-0.1l-0.194,-0.098l-0.195,-0.098l-0.196,-0.097l-0.196,-0.095l-0.197,-0.094l-0.198,-0.093l-0.198,-0.092l-0.199,-0.091l-0.199,-0.089l-0.2,-0.089l-0.201,-0.087l-0.202,-0.086l-0.202,-0.085l-0.202,-0.083l-0.204,-0.083l-0.203,-0.081l-0.205,-0.08l-0.205,-0.079l-0.206,-0.077l-0.206,-0.076l-0.207,-0.075l-0.207,-0.074l-0.208,-0.073l-0.209,-0.071l-0.209,-0.07l-0.21,-0.069l-0.21,-0.068l-0.211,-0.066l-0.211,-0.065l-0.212,-0.064l-0.212,-0.063l-0.214,-0.061l-0.213,-0.06l-0.214,-0.059l-0.215,-0.057l-0.215,-0.056l-0.216,-0.055l-0.216,-0.054l-0.216,-0.052l-0.218,-0.051l-0.217,-0.049l-0.219,-0.049l-0.218,-0.046l-0.22,-0.046l-0.219,-0.044l-0.22,-0.043l-0.221,-0.042l-0.221,-0.04l-0.222,-0.039l-0.222,-0.038l-0.223,-0.036l-0.223,-0.035l-0.223,-0.033l-0.224,-0.032l-0.225,-0.031l-0.224,-0.029l-0.226,-0.028l-0.226,-0.027l-0.226,-0.025l-0.226,-0.024l-0.227,-0.022l-0.228,-0.021l-0.228,-0.02l-0.228,-0.018l-0.229,-0.017l-0.229,-0.015l-0.23,-0.014l-0.23,-0.012l-0.23,-0.011l-0.231,-0.01l-0.231,-0.008l-0.232,-0.006l-0.232,-0.005l-0.232,-0.004l-0.233,-0.002l-0.233,-0.001l-0.233,0.001Z"/><rect x="37.5" y="5" width="25" height="4"/><path d="M86.521,20.826l-2.515,3.11l-9.719,-7.861l2.516,-3.11l9.718,7.861Z"/><path d="M69.843,41.448l0.075,0.001l0.074,0.003l0.074,0.003l0.074,0.004l0.073,0.005l0.073,0.006l0.073,0.007l0.073,0.008l0.072,0.009l0.072,0.009l0.072,0.011l0.072,0.011l0.071,0.013l0.071,0.013l0.07,0.014l0.071,0.015l0.07,0.015l0.069,0.017l0.07,0.017l0.069,0.019l0.068,0.019l0.069,0.02l0.068,0.02l0.067,0.022l0.068,0.022l0.067,0.023l0.066,0.024l0.066,0.025l0.066,0.025l0.065,0.027l0.065,0.027l0.065,0.027l0.064,0.029l0.064,0.029l0.063,0.03l0.063,0.031l0.063,0.032l0.062,0.032l0.061,0.033l0.061,0.034l0.061,0.034l0.06,0.035l0.06,0.036l0.059,0.037l0.059,0.037l0.059,0.038l0.057,0.038l0.058,0.04l0.057,0.04l0.056,0.04l0.056,0.042l0.055,0.042l0.055,0.042l0.054,0.043l0.054,0.044l0.053,0.045l0.053,0.045l0.052,0.045l0.052,0.047l0.051,0.047l0.05,0.047l0.05,0.048l0.049,0.049l0.049,0.049l0.048,0.05l0.048,0.051l0.047,0.051l0.046,0.051l0.046,0.052l0.045,0.053l0.044,0.053l0.044,0.054l0.043,0.054l0.043,0.055l0.042,0.056l0.041,0.055l0.041,0.057l0.04,0.057l0.039,0.057l0.039,0.058l0.038,0.058l0.037,0.059l0.036,0.059l0.036,0.06l0.035,0.06l0.035,0.061l0.034,0.061l0.033,0.062l0.032,0.062l0.031,0.062l0.031,0.063l0.03,0.064l0.03,0.063l0.028,0.065l0.028,0.064l0.027,0.065l0.026,0.066l0.026,0.065l0.024,0.066l0.024,0.067l0.023,0.067l0.023,0.067l0.021,0.068l0.021,0.068l0.02,0.068l0.019,0.069l0.018,0.069l0.018,0.069l0.016,0.07l0.016,0.07l0.015,0.07l0.014,0.071l0.013,0.071l0.012,0.071l0.011,0.072l0.011,0.071l0.01,0.072l0.008,0.073l0.008,0.072l0.007,0.073l0.006,0.074l0.005,0.073l0.005,0.074l0.003,0.074l0.002,0.074l0.002,0.074l0,0.075l0,11.552l0,0.075l-0.002,0.074l-0.002,0.074l-0.003,0.074l-0.005,0.074l-0.005,0.073l-0.006,0.074l-0.007,0.073l-0.008,0.072l-0.008,0.073l-0.01,0.072l-0.011,0.071l-0.011,0.072l-0.012,0.071l-0.013,0.071l-0.014,0.071l-0.015,0.07l-0.016,0.07l-0.016,0.07l-0.018,0.069l-0.018,0.069l-0.019,0.069l-0.02,0.068l-0.021,0.068l-0.021,0.068l-0.023,0.067l-0.023,0.067l-0.024,0.067l-0.024,0.066l-0.026,0.065l-0.026,0.066l-0.027,0.065l-0.028,0.064l-0.028,0.065l-0.03,0.063l-0.03,0.064l-0.031,0.063l-0.031,0.062l-0.032,0.062l-0.033,0.062l-0.034,0.061l-0.035,0.061l-0.035,0.06l-0.036,0.06l-0.036,0.059l-0.037,0.059l-0.038,0.058l-0.039,0.058l-0.039,0.057l-0.04,0.057l-0.041,0.057l-0.041,0.055l-0.042,0.056l-0.043,0.055l-0.043,0.054l-0.044,0.054l-0.044,0.053l-0.045,0.053l-0.046,0.052l-0.046,0.051l-0.047,0.051l-0.048,0.051l-0.048,0.05l-0.049,0.049l-0.049,0.049l-0.05,0.048l-0.05,0.047l-0.051,0.047l-0.052,0.047l-0.052,0.045l-0.053,0.045l-0.053,0.045l-0.054,0.044l-0.054,0.043l-0.055,0.042l-0.055,0.042l-0.056,0.042l-0.056,0.04l-0.057,0.04l-0.058,0.04l-0.057,0.038l-0.059,0.038l-0.059,0.037l-0.059,0.037l-0.06,0.036l-0.06,0.035l-0.061,0.034l-0.061,0.034l-0.061,0.033l-0.062,0.032l-0.063,0.032l-0.063,0.031l-0.063,0.03l-0.064,0.029l-0.064,0.029l-0.065,0.027l-0.065,0.027l-0.065,0.027l-0.066,0.025l-0.066,0.025l-0.066,0.024l-0.067,0.023l-0.068,0.022l-0.067,0.022l-0.068,0.02l-0.069,0.02l-0.068,0.019l-0.069,0.019l-0.07,0.017l-0.069,0.017l-0.07,0.015l-0.071,0.015l-0.07,0.014l-0.071,0.013l-0.071,0.013l-0.072,0.011l-0.072,0.011l-0.072,0.009l-0.072,0.009l-0.073,0.008l-0.073,0.007l-0.073,0.006l-0.073,0.005l-0.074,0.004l-0.074,0.003l-0.074,0.003l-0.075,0.001l-0.074,0.001l-39.538,0l-0.074,-0.001l-0.075,-0.001l-0.074,-0.003l-0.074,-0.003l-0.074,-0.004l-0.073,-0.005l-0.073,-0.006l-0.073,-0.007l-0.073,-0.008l-0.072,-0.009l-0.072,-0.009l-0.072,-0.011l-0.072,-0.011l-0.071,-0.013l-0.071,-0.013l-0.07,-0.014l-0.071,-0.015l-0.07,-0.015l-0.069,-0.017l-0.07,-0.017l-0.069,-0.019l-0.068,-0.019l-0.069,-0.02l-0.068,-0.02l-0.067,-0.022l-0.068,-0.022l-0.067,-0.023l-0.066,-0.024l-0.066,-0.025l-0.066,-0.025l-0.065,-0.027l-0.065,-0.027l-0.065,-0.027l-0.064,-0.029l-0.064,-0.029l-0.063,-0.03l-0.063,-0.031l-0.063,-0.032l-0.062,-0.032l-0.061,-0.033l-0.061,-0.034l-0.061,-0.034l-0.06,-0.035l-0.06,-0.036l-0.059,-0.037l-0.059,-0.037l-0.059,-0.038l-0.057,-0.038l-0.058,-0.04l-0.057,-0.04l-0.056,-0.04l-0.056,-0.042l-0.055,-0.042l-0.055,-0.042l-0.054,-0.043l-0.054,-0.044l-0.053,-0.045l-0.053,-0.045l-0.052,-0.045l-0.052,-0.047l-0.051,-0.047l-0.05,-0.047l-0.05,-0.048l-0.049,-0.049l-0.049,-0.049l-0.048,-0.05l-0.048,-0.051l-0.047,-0.051l-0.046,-0.051l-0.046,-0.052l-0.045,-0.053l-0.044,-0.053l-0.044,-0.054l-0.043,-0.054l-0.043,-0.055l-0.042,-0.056l-0.041,-0.055l-0.041,-0.057l-0.04,-0.057l-0.039,-0.057l-0.039,-0.058l-0.038,-0.058l-0.037,-0.059l-0.036,-0.059l-0.036,-0.06l-0.035,-0.06l-0.035,-0.061l-0.034,-0.061l-0.033,-0.062l-0.032,-0.062l-0.031,-0.062l-0.031,-0.063l-0.03,-0.064l-0.03,-0.063l-0.028,-0.065l-0.028,-0.064l-0.027,-0.065l-0.026,-0.066l-0.026,-0.065l-0.024,-0.066l-0.024,-0.067l-0.023,-0.067l-0.023,-0.067l-0.021,-0.068l-0.021,-0.068l-0.02,-0.068l-0.019,-0.069l-0.018,-0.069l-0.018,-0.069l-0.016,-0.07l-0.016,-0.07l-0.015,-0.07l-0.014,-0.071l-0.013,-0.071l-0.012,-0.071l-0.011,-0.072l-0.011,-0.071l-0.01,-0.072l-0.008,-0.073l-0.008,-0.072l-0.007,-0.073l-0.006,-0.074l-0.005,-0.073l-0.005,-0.074l-0.003,-0.074l-0.002,-0.074l-0.002,-0.074l0,-0.075l0,-11.552l0,-0.075l0.002,-0.074l0.002,-0.074l0.003,-0.074l0.005,-0.074l0.005,-0.073l0.006,-0.074l0.007,-0.073l0.008,-0.072l0.008,-0.073l0.01,-0.072l0.011,-0.071l0.011,-0.072l0.012,-0.071l0.013,-0.071l0.014,-0.071l0.015,-0.07l0.016,-0.07l0.016,-0.07l0.018,-0.069l0.018,-0.069l0.019,-0.069l0.02,-0.068l0.021,-0.068l0.021,-0.068l0.023,-0.067l0.023,-0.067l0.024,-0.067l0.024,-0.066l0.026,-0.065l0.026,-0.066l0.027,-0.065l0.028,-0.064l0.028,-0.065l0.03,-0.063l0.03,-0.064l0.031,-0.063l0.031,-0.062l0.032,-0.062l0.033,-0.062l0.034,-0.061l0.035,-0.061l0.035,-0.06l0.036,-0.06l0.036,-0.059l0.037,-0.059l0.038,-0.058l0.039,-0.058l0.039,-0.057l0.04,-0.057l0.041,-0.057l0.041,-0.055l0.042,-0.056l0.043,-0.055l0.043,-0.054l0.044,-0.054l0.044,-0.053l0.045,-0.053l0.046,-0.052l0.046,-0.051l0.047,-0.051l0.048,-0.051l0.048,-0.05l0.049,-0.049l0.049,-0.049l0.05,-0.048l0.05,-0.047l0.051,-0.047l0.052,-0.047l0.052,-0.045l0.053,-0.045l0.053,-0.045l0.054,-0.044l0.054,-0.043l0.055,-0.042l0.055,-0.042l0.056,-0.042l0.056,-0.04l0.057,-0.04l0.058,-0.04l0.057,-0.038l0.059,-0.038l0.059,-0.037l0.059,-0.037l0.06,-0.036l0.06,-0.035l0.061,-0.034l0.061,-0.034l0.061,-0.033l0.062,-0.032l0.063,-0.032l0.063,-0.031l0.063,-0.03l0.064,-0.029l0.064,-0.029l0.065,-0.027l0.065,-0.027l0.065,-0.027l0.066,-0.025l0.066,-0.025l0.066,-0.024l0.067,-0.023l0.068,-0.022l0.067,-0.022l0.068,-0.02l0.069,-0.02l0.068,-0.019l0.069,-0.019l0.07,-0.017l0.069,-0.017l0.07,-0.015l0.071,-0.015l0.07,-0.014l0.071,-0.013l0.071,-0.013l0.072,-0.011l0.072,-0.011l0.072,-0.009l0.072,-0.009l0.073,-0.008l0.073,-0.007l0.073,-0.006l0.073,-0.005l0.074,-0.004l0.074,-0.003l0.074,-0.003l0.075,-0.001l0.074,-0.001l39.538,0l0.074,0.001Zm-39.599,3.999l-0.037,0.001l-0.023,0l-0.024,0.001l-0.023,0.001l-0.023,0.001l-0.023,0.002l-0.023,0.002l-0.022,0.002l-0.023,0.002l-0.022,0.003l-0.022,0.003l-0.022,0.003l-0.022,0.004l-0.022,0.003l-0.021,0.004l-0.022,0.005l-0.021,0.004l-0.021,0.005l-0.021,0.005l-0.021,0.005l-0.021,0.006l-0.021,0.005l-0.02,0.006l-0.021,0.007l-0.02,0.006l-0.02,0.007l-0.021,0.007l-0.02,0.007l-0.02,0.007l-0.02,0.008l-0.019,0.008l-0.02,0.008l-0.02,0.009l-0.019,0.008l-0.02,0.009l-0.019,0.009l-0.019,0.01l-0.019,0.01l-0.019,0.009l-0.019,0.011l-0.019,0.01l-0.018,0.01l-0.019,0.011l-0.018,0.011l-0.019,0.012l-0.018,0.011l-0.018,0.012l-0.018,0.012l-0.017,0.012l-0.018,0.012l-0.018,0.013l-0.017,0.013l-0.017,0.013l-0.017,0.013l-0.017,0.013l-0.017,0.014l-0.016,0.014l-0.017,0.014l-0.016,0.014l-0.016,0.015l-0.016,0.014l-0.016,0.015l-0.016,0.015l-0.015,0.016l-0.015,0.015l-0.015,0.016l-0.015,0.015l-0.015,0.016l-0.014,0.016l-0.015,0.017l-0.014,0.016l-0.013,0.017l-0.014,0.016l-0.014,0.017l-0.013,0.017l-0.013,0.018l-0.013,0.017l-0.012,0.017l-0.013,0.018l-0.012,0.018l-0.012,0.018l-0.011,0.018l-0.012,0.018l-0.011,0.018l-0.011,0.019l-0.011,0.018l-0.011,0.019l-0.01,0.018l-0.01,0.019l-0.01,0.019l-0.01,0.019l-0.009,0.02l-0.009,0.019l-0.009,0.019l-0.009,0.02l-0.008,0.019l-0.008,0.02l-0.008,0.02l-0.008,0.02l-0.008,0.02l-0.007,0.02l-0.007,0.02l-0.006,0.02l-0.007,0.021l-0.006,0.02l-0.006,0.021l-0.006,0.021l-0.005,0.02l-0.006,0.021l-0.005,0.021l-0.004,0.022l-0.005,0.021l-0.004,0.021l-0.004,0.022l-0.004,0.022l-0.003,0.021l-0.004,0.022l-0.003,0.023l-0.002,0.022l-0.003,0.022l-0.002,0.023l-0.002,0.022l-0.001,0.023l-0.002,0.023l-0.001,0.024l0,0.023l-0.001,0.024l0,0.036l0,11.528l0,0.036l0.001,0.024l0,0.023l0.001,0.024l0.002,0.023l0.001,0.023l0.002,0.022l0.002,0.023l0.003,0.022l0.002,0.023l0.003,0.022l0.004,0.022l0.003,0.021l0.004,0.022l0.004,0.022l0.004,0.021l0.005,0.021l0.004,0.022l0.005,0.021l0.006,0.021l0.005,0.02l0.006,0.021l0.006,0.021l0.006,0.02l0.007,0.021l0.006,0.02l0.007,0.02l0.007,0.02l0.008,0.02l0.008,0.02l0.008,0.02l0.008,0.02l0.008,0.019l0.009,0.02l0.009,0.019l0.009,0.019l0.009,0.02l0.01,0.019l0.01,0.019l0.01,0.019l0.01,0.018l0.011,0.019l0.011,0.018l0.011,0.019l0.011,0.018l0.012,0.018l0.011,0.018l0.012,0.018l0.012,0.018l0.013,0.018l0.012,0.017l0.013,0.017l0.013,0.018l0.013,0.017l0.014,0.017l0.014,0.016l0.013,0.017l0.015,0.016l0.014,0.017l0.014,0.016l0.015,0.016l0.015,0.015l0.015,0.016l0.015,0.015l0.015,0.016l0.016,0.015l0.016,0.015l0.016,0.014l0.016,0.015l0.016,0.014l0.017,0.014l0.016,0.014l0.017,0.014l0.017,0.013l0.017,0.013l0.017,0.013l0.017,0.013l0.018,0.013l0.018,0.012l0.017,0.012l0.018,0.012l0.018,0.012l0.018,0.011l0.019,0.012l0.018,0.011l0.019,0.011l0.018,0.01l0.019,0.01l0.019,0.011l0.019,0.009l0.019,0.01l0.019,0.009l0.019,0.01l0.02,0.009l0.019,0.008l0.02,0.009l0.02,0.008l0.019,0.008l0.02,0.008l0.02,0.007l0.02,0.007l0.02,0.007l0.021,0.007l0.02,0.006l0.021,0.007l0.02,0.006l0.021,0.005l0.021,0.006l0.021,0.005l0.021,0.005l0.021,0.005l0.021,0.004l0.022,0.005l0.021,0.004l0.022,0.003l0.022,0.004l0.022,0.003l0.022,0.003l0.022,0.003l0.023,0.002l0.022,0.002l0.023,0.002l0.023,0.002l0.023,0.001l0.023,0.001l0.024,0.001l0.023,0l0.037,0.001l39.512,0l0.037,-0.001l0.023,0l0.024,-0.001l0.023,-0.001l0.023,-0.001l0.023,-0.002l0.023,-0.002l0.022,-0.002l0.023,-0.002l0.022,-0.003l0.022,-0.003l0.022,-0.003l0.022,-0.004l0.022,-0.003l0.021,-0.004l0.022,-0.005l0.021,-0.004l0.021,-0.005l0.021,-0.005l0.021,-0.005l0.021,-0.006l0.021,-0.005l0.02,-0.006l0.021,-0.007l0.02,-0.006l0.021,-0.007l0.02,-0.007l0.02,-0.007l0.02,-0.007l0.02,-0.008l0.019,-0.008l0.02,-0.008l0.02,-0.009l0.019,-0.008l0.02,-0.009l0.019,-0.01l0.019,-0.009l0.019,-0.009l0.019,-0.01l0.019,-0.011l0.019,-0.01l0.018,-0.01l0.019,-0.011l0.018,-0.011l0.019,-0.012l0.018,-0.011l0.018,-0.012l0.018,-0.012l0.017,-0.012l0.018,-0.012l0.018,-0.013l0.017,-0.013l0.017,-0.013l0.017,-0.013l0.017,-0.013l0.017,-0.014l0.016,-0.014l0.017,-0.014l0.016,-0.014l0.016,-0.015l0.016,-0.014l0.016,-0.015l0.016,-0.015l0.015,-0.016l0.015,-0.015l0.015,-0.016l0.015,-0.015l0.015,-0.016l0.014,-0.016l0.014,-0.017l0.015,-0.016l0.013,-0.017l0.014,-0.016l0.014,-0.017l0.013,-0.017l0.013,-0.018l0.013,-0.017l0.012,-0.017l0.013,-0.018l0.012,-0.018l0.012,-0.018l0.012,-0.018l0.011,-0.018l0.011,-0.018l0.011,-0.019l0.011,-0.018l0.011,-0.019l0.01,-0.019l0.01,-0.018l0.01,-0.019l0.01,-0.019l0.009,-0.02l0.009,-0.019l0.009,-0.019l0.009,-0.02l0.008,-0.019l0.008,-0.02l0.008,-0.02l0.008,-0.02l0.007,-0.02l0.008,-0.02l0.007,-0.02l0.006,-0.02l0.007,-0.021l0.006,-0.02l0.006,-0.021l0.006,-0.021l0.005,-0.02l0.006,-0.022l0.005,-0.02l0.004,-0.022l0.005,-0.021l0.004,-0.021l0.004,-0.022l0.004,-0.022l0.003,-0.021l0.004,-0.022l0.003,-0.022l0.002,-0.023l0.003,-0.022l0.002,-0.023l0.002,-0.023l0.001,-0.022l0.002,-0.023l0.001,-0.024l0,-0.023l0.001,-0.024l0,-0.036l0,-11.528l0,-0.036l-0.001,-0.024l0,-0.023l-0.001,-0.024l-0.002,-0.023l-0.001,-0.022l-0.002,-0.023l-0.002,-0.023l-0.003,-0.022l-0.002,-0.023l-0.003,-0.022l-0.004,-0.022l-0.003,-0.021l-0.004,-0.022l-0.004,-0.022l-0.004,-0.021l-0.005,-0.021l-0.004,-0.022l-0.005,-0.02l-0.006,-0.022l-0.005,-0.02l-0.006,-0.021l-0.006,-0.021l-0.006,-0.02l-0.007,-0.021l-0.006,-0.02l-0.007,-0.02l-0.008,-0.02l-0.007,-0.02l-0.008,-0.02l-0.008,-0.02l-0.008,-0.02l-0.008,-0.019l-0.009,-0.02l-0.009,-0.019l-0.009,-0.019l-0.009,-0.02l-0.01,-0.019l-0.01,-0.019l-0.01,-0.018l-0.01,-0.019l-0.011,-0.019l-0.011,-0.018l-0.011,-0.019l-0.011,-0.018l-0.011,-0.018l-0.012,-0.018l-0.012,-0.018l-0.012,-0.018l-0.013,-0.018l-0.012,-0.017l-0.013,-0.017l-0.013,-0.018l-0.013,-0.017l-0.014,-0.017l-0.014,-0.016l-0.013,-0.017l-0.014,-0.016l-0.015,-0.017l-0.014,-0.016l-0.015,-0.016l-0.015,-0.015l-0.015,-0.016l-0.015,-0.015l-0.015,-0.016l-0.016,-0.015l-0.016,-0.015l-0.016,-0.014l-0.016,-0.015l-0.016,-0.014l-0.017,-0.014l-0.016,-0.014l-0.017,-0.014l-0.017,-0.013l-0.017,-0.013l-0.017,-0.013l-0.017,-0.013l-0.018,-0.013l-0.018,-0.012l-0.017,-0.012l-0.018,-0.012l-0.018,-0.012l-0.018,-0.011l-0.019,-0.012l-0.018,-0.011l-0.019,-0.011l-0.018,-0.01l-0.019,-0.01l-0.019,-0.011l-0.019,-0.009l-0.019,-0.01l-0.019,-0.01l-0.019,-0.009l-0.02,-0.009l-0.019,-0.008l-0.02,-0.009l-0.02,-0.008l-0.019,-0.008l-0.02,-0.008l-0.02,-0.007l-0.02,-0.007l-0.021,-0.007l-0.02,-0.007l-0.02,-0.006l-0.021,-0.007l-0.02,-0.006l-0.021,-0.005l-0.021,-0.006l-0.021,-0.005l-0.021,-0.005l-0.021,-0.005l-0.021,-0.004l-0.022,-0.005l-0.021,-0.004l-0.022,-0.003l-0.022,-0.004l-0.022,-0.003l-0.022,-0.003l-0.022,-0.003l-0.023,-0.002l-0.022,-0.002l-0.023,-0.002l-0.023,-0.002l-0.023,-0.001l-0.023,-0.001l-0.024,-0.001l-0.023,0l-0.037,-0.001l-39.512,0Z"/></g></svg>